<?xml version="1.0" encoding="UTF-8" standalone="no"?>
<svg width="33px" height="43px" viewBox="0 0 33 43" version="1.1" xmlns="http://www.w3.org/2000/svg" xmlns:xlink="http://www.w3.org/1999/xlink">
    <!-- Generator: Sketch 39.1 (31720) - http://www.bohemiancoding.com/sketch -->
    <title>Group</title>
    <desc>Created with Sketch.</desc>
    <defs></defs>
    <g id="Page-1" stroke="none" stroke-width="1" fill="none" fill-rule="evenodd">
        <g id="main-page" transform="translate(-332.000000, -1670.000000)">
            <g id="Group" transform="translate(332.000000, 1670.156000)">
                <path d="M23.3868544,0 L1.14196978,0 C0.522651099,0 0.0206043956,0.496262755 0.0206043956,1.4592398 L0.0206043956,41.6709184 C0.0206043956,41.9323087 0.522651099,42.4285714 1.14196978,42.4285714 L31.8580302,42.4285714 C32.4773489,42.4285714 32.9793956,41.9323087 32.9793956,41.6709184 L32.9793956,9.83282143 C32.9793956,9.3054949 32.9081126,9.13578061 32.7824093,9.01076786 L23.8636071,0.194716837 C23.7371374,0.0704617347 23.5654451,0 23.3868544,0 L23.3868544,0 Z" id="Shape" fill="#E9E9E0"></path>
                <polygon id="Shape" fill="#D9D7CA" points="23.7815934 0.114405612 23.7815934 9.09183673 32.8636566 9.09183673"></polygon>
                <path d="M9.99562088,25.2480306 L9.99562088,25.2480306 C9.72888462,25.2480306 9.47287912,25.1624158 9.25443132,25.0010357 C8.45652198,24.4093087 8.34921429,23.7509082 8.3998022,23.3023776 C8.5393022,22.0689184 10.0822335,20.7778776 12.987206,19.4625918 C14.1399973,16.9653673 15.2368352,13.8885383 15.8906456,11.3178214 C15.1256951,9.67219898 14.382206,7.53713265 14.9241099,6.28473214 C15.1141978,5.84605102 15.3510412,5.50965306 15.7933022,5.36418367 C15.9680604,5.30660204 16.4095549,5.23386735 16.5720495,5.23386735 C16.9583571,5.23386735 17.2979093,5.72558418 17.5385852,6.02864541 C17.7646978,6.31352296 18.2774753,6.91737245 17.2526868,11.1822015 C18.2859066,13.2915077 19.7498901,15.4402117 21.1525549,16.911574 C22.1574148,16.7320102 23.0220082,16.6403342 23.7264066,16.6403342 C24.9267198,16.6403342 25.6541126,16.9168776 25.9507418,17.4866327 C26.1960165,17.9578929 26.0956071,18.5087066 25.6518132,19.1231633 C25.2248819,19.713375 24.6362225,20.0255281 23.9502198,20.0255281 C23.0181758,20.0255281 21.9328352,19.4436505 20.7225577,18.2942908 C18.548044,18.7435791 16.0086841,19.545176 13.9560412,20.4323878 C13.315261,21.7764643 12.7013077,22.8591505 12.129511,23.6531709 C11.3438654,24.7404031 10.666294,25.2480306 9.99562088,25.2480306 L9.99562088,25.2480306 Z M12.036,21.364301 C10.3980247,22.2742423 9.73041758,23.0220459 9.68212912,23.443301 C9.67446429,23.5130051 9.65376923,23.6963571 10.0124835,23.9675969 C10.1266896,23.9319872 10.7935302,23.631199 12.036,21.364301 L12.036,21.364301 Z M22.4885357,17.9988061 C23.1132198,18.4738546 23.26575,18.7140306 23.6742857,18.7140306 C23.8536429,18.7140306 24.3648874,18.7064541 24.6017308,18.3799056 C24.7159368,18.2215561 24.7603929,18.1200306 24.778022,18.0654796 C24.6837445,18.0162321 24.5588077,17.9162219 23.8774038,17.9162219 C23.4903297,17.9169796 23.0036126,17.933648 22.4885357,17.9988061 L22.4885357,17.9988061 Z M16.7629038,13.0119337 C16.2148681,14.8863673 15.4913077,16.9100587 14.7133269,18.7428214 C16.3152775,18.1283648 18.056728,17.5919464 19.6924038,17.2123622 C18.6576511,16.0243622 17.6236648,14.5408776 16.7629038,13.0119337 L16.7629038,13.0119337 Z M16.2976484,6.60067347 C16.222533,6.62567602 15.2782253,7.9318699 16.3712308,9.03728571 C17.0986236,7.43484949 16.3306071,6.59006633 16.2976484,6.60067347 L16.2976484,6.60067347 Z" id="Shape" fill="#EC0777"></path>
                <path d="M31.8580302,42.4285714 L1.14196978,42.4285714 C0.522651099,42.4285714 0.0206043956,41.9323087 0.0206043956,41.320125 L0.0206043956,29.5484694 L32.9793956,29.5484694 L32.9793956,41.320125 C32.9793956,41.9323087 32.4773489,42.4285714 31.8580302,42.4285714 L31.8580302,42.4285714 Z" id="Shape" fill="#EC0777"></path>
                <g transform="translate(6.898352, 32.184066)" id="Shape" fill="#FFFFFF">
                    <path d="M1.46542582,7.97154631 L0.207626374,7.97154631 L0.207626374,0.337434066 L2.4288956,0.337434066 C2.75695055,0.337434066 3.08193956,0.388954474 3.40309615,0.492752943 C3.72425275,0.596551413 4.01245055,0.75187029 4.26768956,0.958709576 C4.52292857,1.16554886 4.72911264,1.41633203 4.88624176,1.70954376 C5.04337088,2.00275549 5.12231868,2.33233458 5.12231868,2.69903866 C5.12231868,3.08619937 5.05563462,3.43623509 4.92303297,3.75066111 C4.79043132,4.06508713 4.60494231,4.32950805 4.36733242,4.54316621 C4.12972253,4.75682437 3.84305769,4.92275039 3.5081044,5.04018662 C3.1731511,5.15762284 2.80217308,5.21596213 2.39746978,5.21596213 L1.46465934,5.21596213 L1.46465934,7.97154631 L1.46542582,7.97154631 Z M1.46542582,1.27995447 L1.46542582,4.30450549 L2.61821703,4.30450549 C2.77151374,4.30450549 2.92327747,4.27874529 3.07427473,4.22646723 C3.22450549,4.17494682 3.36247253,4.09008968 3.48817582,3.97265345 C3.61387912,3.85521723 3.71505495,3.69156417 3.7917033,3.48093662 C3.86835165,3.27030907 3.90667582,3.00967641 3.90667582,2.69903866 C3.90667582,2.57478356 3.8890467,2.43082947 3.85455495,2.26944937 C3.8192967,2.10731162 3.74801374,1.95199274 3.63993956,1.80349274 C3.5310989,1.65499274 3.37933516,1.53073764 3.18388187,1.43072743 C2.98842857,1.33071723 2.72935714,1.28071213 2.40820055,1.28071213 L1.46542582,1.28071213 L1.46542582,1.27995447 Z"></path>
                    <path d="M12.8354423,3.94234733 C12.8354423,4.57044172 12.7672253,5.10761774 12.6307912,5.55311774 C12.4943571,5.99861774 12.3218984,6.37138305 12.1118819,6.67217131 C11.9018654,6.97295958 11.6665549,7.20934733 11.4044176,7.38209223 C11.1422802,7.55483713 10.8893407,7.68363815 10.6448324,7.77076825 C10.4003242,7.8571407 10.176511,7.91244937 9.97415934,7.93669427 C9.77180769,7.95942386 9.62157692,7.97154631 9.52346703,7.97154631 L6.6000989,7.97154631 L6.6000989,0.337434066 L8.92637637,0.337434066 C9.5763544,0.337434066 10.1473846,0.439717229 10.639467,0.64276825 C11.1315495,0.84581927 11.5408516,1.11781672 11.8658407,1.45572998 C12.1908297,1.79364325 12.4330385,2.17928866 12.594,2.61039325 C12.7549615,3.04225549 12.8354423,3.48624019 12.8354423,3.94234733 L12.8354423,3.94234733 Z M9.10496703,7.06008968 C9.9572967,7.06008968 10.5720165,6.79112284 10.9491264,6.25243151 C11.3262363,5.71374019 11.5147912,4.93335754 11.5147912,3.91128356 C11.5147912,3.59382692 11.476467,3.2794009 11.3998187,2.96876315 C11.3224038,2.65812539 11.1744725,2.37703611 10.9544918,2.12473764 C10.734511,1.87243917 10.4355824,1.66863049 10.0584725,1.51331162 C9.68136264,1.35799274 9.19234615,1.27995447 8.59142308,1.27995447 L7.85789835,1.27995447 L7.85789835,7.06008968 L9.10496703,7.06008968 L9.10496703,7.06008968 Z"></path>
                    <polygon points="15.9374011 1.27995447 15.9374011 3.68322998 19.1650632 3.68322998 19.1650632 4.53255907 15.9374011 4.53255907 15.9374011 7.97154631 14.6589066 7.97154631 14.6589066 0.337434066 19.4892857 0.337434066 19.4892857 1.27995447"></polygon>
                </g>
            </g>
        </g>
    </g>
</svg>