<?xml version="1.0" encoding="UTF-8" standalone="no"?>
<svg width="187px" height="32px" viewBox="0 0 187 32" version="1.1" xmlns="http://www.w3.org/2000/svg" xmlns:xlink="http://www.w3.org/1999/xlink">
    <!-- Generator: Sketch 39.1 (31720) - http://www.bohemiancoding.com/sketch -->
    <title>logo</title>
    <desc>Created with Sketch.</desc>
    <defs>
        <polygon id="path-1" points="150.603529 17.2391238 150.603529 0.0703238095 0.42769393 0.0703238095 0.42769393 17.2391238 150.603529 17.2391238"></polygon>
    </defs>
    <g id="Page-1" stroke="none" stroke-width="1" fill="none" fill-rule="evenodd">
        <g id="Mobile" transform="translate(-16.000000, -30.000000)">
            <g id="logo" transform="translate(16.000000, 30.000000)">
                <path d="M23.6547326,7.46928 L23.6547326,7.46928 C24.556313,7.2237181 25.3597342,6.93206095 25.9833342,6.62196571 C26.5929115,6.32276571 26.9756501,6.05792762 27.169494,5.80482286 C27.2594046,5.6925181 27.2602295,5.68665143 27.2470316,5.51987048 C27.232184,5.31705143 27.2024888,5.25503238 27.0614364,5.13686095 C26.9063612,5.00695619 26.8684173,4.98935619 26.7512861,5.00779429 C26.2241956,5.09076571 25.3828305,5.60703238 24.4631029,6.41328 C24.0836638,6.74013714 23.2546717,7.57655619 23.321486,7.5581181 C23.3478817,7.55308952 23.4971828,7.50783238 23.6547326,7.46928 M4.86919435,7.12314667 L4.86919435,7.12314667 C3.94451759,6.19705143 3.1361472,5.56345143 2.43335987,5.21983238 C2.17187679,5.09076571 1.81140959,4.98432762 1.71737466,5.00695619 C1.68685455,5.01366095 1.59859371,5.08154667 1.52105614,5.15278476 C1.36680587,5.29609905 1.33216142,5.37739429 1.33216142,5.59529905 C1.33216142,5.69754667 1.34370957,5.71430857 1.52105614,5.90036571 C1.92689107,6.32025143 2.70474136,6.73427048 3.79934087,7.11392762 C4.22084829,7.26143238 5.19089277,7.55308952 5.30224992,7.56649905 C5.31049859,7.56649905 5.1158298,7.3645181 4.86919435,7.12314667 M15.7722963,8.55293714 L15.7722963,8.55293714 C17.9763429,8.4716419 19.8735388,8.26714667 21.6865981,7.92017524 L22.0891336,7.84223238 L22.3176219,7.54973714 C23.3660288,6.21465143 24.4861992,5.06981333 25.3044681,4.50577524 L25.4966622,4.36916571 L25.2953945,4.3021181 C24.9877188,4.20406095 24.2667844,4.02638476 23.7792876,3.92665143 C22.0511896,3.57381333 20.2092599,3.37602286 17.3477937,3.2268419 C16.5311746,3.18577524 13.1120978,3.16817524 12.0826628,3.20253714 C9.02405322,3.30059429 6.69380182,3.53693714 4.69267265,3.9501181 C4.26209168,4.03895619 3.56260382,4.21747048 3.25740276,4.31468952 L3.08748,4.36916571 L3.26482657,4.49152762 C4.10454194,5.08154667 5.12737795,6.12162286 6.21372878,7.48688 C6.37210339,7.68467048 6.50408223,7.84474667 6.50903144,7.84474667 C6.51315578,7.84474667 6.78701187,7.89670857 7.12273305,7.95788952 C9.70539398,8.43895619 12.9108301,8.66021333 15.7722963,8.55293714 M14.4673555,20.9232229 L14.4673555,20.9232229 C16.0412032,17.2540419 18.8589514,12.2941943 21.2650907,8.94935619 C21.3921203,8.7708419 21.4902796,8.61830857 21.4861552,8.61076571 C21.4803812,8.60573714 21.2601415,8.62668952 20.9937092,8.65434667 C17.0995085,9.07926095 11.869847,9.08848 7.85191614,8.67865143 C7.4436066,8.63674667 7.10706056,8.60825143 7.09716215,8.61328 C7.09303781,8.61998476 7.22089231,8.80939429 7.38421612,9.0348419 C9.03147703,11.3362514 10.8973279,14.4271467 12.4489041,17.4250133 C13.023837,18.5296229 13.9386153,20.4572419 14.2182455,21.1511848 C14.252065,21.2316419 14.2825851,21.2953371 14.290009,21.2953371 C14.3007322,21.2953371 14.3757952,21.1302324 14.4673555,20.9232229 M16.4189926,26.4135848 L16.4189926,26.4135848 C17.6216498,25.1757181 18.7913123,23.6487086 20.2430795,21.4218895 C23.2983897,16.7478324 26.0212781,11.27088 26.9187342,7.9964419 C27.0276168,7.60337524 27.113403,7.23712762 27.0969057,7.22455619 C27.0919565,7.21785143 27.020193,7.24634667 26.9352316,7.2924419 C26.134285,7.70310857 24.6445739,8.11461333 23.0237087,8.37777524 C22.7506775,8.42303238 22.4999177,8.46493714 22.4726971,8.47918476 C22.4075325,8.50600381 21.9736521,9.01640381 21.4432621,9.69023238 C19.098988,12.6721752 16.9452582,16.3740419 15.4885418,19.9334324 C15.1420973,20.7882895 14.6669735,22.0906895 14.6669735,22.1929371 C14.6669735,22.2189181 14.7420365,22.4309562 14.8302973,22.667299 C15.1965386,23.6378133 15.537209,24.7482895 15.6972333,25.5059276 C15.7953926,25.9710705 15.880354,26.539299 15.880354,26.7345752 C15.880354,26.8544229 15.8943767,26.8988419 15.9323206,26.8988419 C15.9380947,26.8988419 16.1599841,26.679261 16.4189926,26.4135848 M12.7120369,26.6214324 L12.7120369,26.6214324 C12.7722523,25.7330514 13.1813867,24.1917943 13.7563195,22.667299 C13.8487047,22.4309562 13.9204682,22.2189181 13.9204682,22.1971276 C13.9204682,22.1451657 13.7299237,21.58448 13.5204073,21.0221181 C12.2212406,17.527261 10.1244268,13.6829181 7.81067275,10.5601752 C7.2390394,9.78828952 6.21207905,8.52276571 6.1238182,8.47583238 C6.10154677,8.46493714 5.89120549,8.42889905 5.65116898,8.39034667 C4.08392024,8.14981333 2.44655776,7.6972419 1.6447863,7.28573714 C1.565599,7.24634667 1.49301063,7.21785143 1.48723656,7.22707048 C1.48063762,7.23126095 1.50538365,7.35865143 1.53920323,7.5036419 C1.97308367,9.33823238 3.11717524,12.1290895 4.63410704,15.0490133 C6.85712563,19.3325181 9.49422784,23.424099 11.5209279,25.7255086 C11.9110904,26.1655086 12.6650195,26.925661 12.680692,26.890461 C12.6889406,26.873699 12.7037883,26.7530133 12.7120369,26.6214324 M14.5044746,27.8978514 L14.5044746,27.8978514 C14.6306793,27.8517562 14.6587248,27.8282895 14.7040926,27.7411276 C14.9828979,27.155299 14.8888629,25.7188038 14.4525079,23.9839467 C14.3881682,23.7333562 14.3320772,23.5037181 14.3279529,23.4710324 C14.3188793,23.440861 14.3056814,23.4157181 14.2949582,23.4157181 C14.258664,23.4157181 14.0054296,24.4775848 13.8891232,25.1321371 C13.7686925,25.7866895 13.7373476,26.1001371 13.7373476,26.67088 C13.7340481,27.2550324 13.7678677,27.489699 13.8767502,27.7293943 C13.9262423,27.83248 13.9493386,27.85008 14.0829671,27.8978514 C14.1638042,27.9280229 14.258664,27.9531657 14.2924836,27.9531657 C14.3279529,27.9531657 14.4219878,27.9280229 14.5044746,27.8978514 M13.9567624,29.1910324 C12.0587417,28.8340038 8.92671882,25.7590324 6.04133142,21.4218895 C2.89776042,16.6950324 0.527090494,11.1233752 0.0470174619,7.33015619 C-0.0156724873,6.82059429 -0.0156724873,5.81320381 0.0470174619,5.4620419 C0.132803708,4.99522286 0.289528581,4.61640381 0.500694726,4.36748952 C0.796822249,4.01632762 1.39732597,3.58722286 2.01185245,3.2796419 C5.12737795,1.73419429 11.2190263,0.897775238 16.8759694,1.2380419 C20.8840018,1.48025143 24.3962887,2.21023238 26.5063004,3.24528 C27.5934761,3.77495619 28.2022285,4.32809905 28.4241179,4.9868419 C28.5494978,5.35308952 28.5849671,5.65228952 28.5849671,6.32025143 C28.5849671,6.68314667 28.5725941,7.06448 28.5511475,7.21533714 C28.1172671,10.8174705 26.0105549,15.9709181 23.0814495,20.5921752 C20.5656028,24.5731276 17.582881,27.8400229 15.5735032,28.8407086 C14.9103095,29.17008 14.4211629,29.27568 13.9567624,29.1910324" id="Fill-1" fill="#FFFFFF"></path>
                <g id="Group-5" transform="translate(36.294181, 0.006118)">
                    <mask id="mask-2" fill="white">
                        <use xlink:href="#path-1"></use>
                    </mask>
                    <g id="Clip-4"></g>
                    <path d="M2.29354479,13.9739048 L4.15939564,13.9739048 L4.15939564,5.92651429 C4.42170359,5.63150476 4.73020413,5.37169524 5.08242266,5.14708571 C5.43464119,4.92247619 5.8182047,4.81017143 6.23311318,4.81017143 C6.52346662,4.81017143 6.80309679,4.85961905 7.07282855,4.95767619 C7.3425603,5.05573333 7.58424655,5.21748571 7.79871217,5.44209524 C8.01235292,5.66670476 8.18557515,5.96171429 8.31672912,6.32628571 C8.44788309,6.69253333 8.51387251,7.13420952 8.51387251,7.65382857 L8.51387251,13.9739048 L10.3797234,13.9739048 L10.3797234,7.65382857 C10.3797234,6.89535238 10.2790895,6.27097143 10.0794715,5.77900952 C9.87902864,5.28788571 9.61259636,4.89733333 9.28099952,4.60986667 C8.94940269,4.3215619 8.57243812,4.12544762 8.1509307,4.01984762 C7.72942328,3.91508571 7.29719258,3.86228571 6.85506346,3.86228571 C6.23311318,3.86228571 5.69364966,3.9704 5.2374978,4.18830476 C4.78134593,4.40620952 4.42170359,4.64841905 4.15939564,4.91493333 L4.05628718,4.91493333 C3.94493003,4.64841905 3.75521045,4.44140952 3.48547869,4.29390476 C3.2165718,4.1464 2.81898555,4.07264762 2.29354479,4.07264762 L0.42769393,4.07264762 L0.42769393,4.49337143 L0.841777542,4.49337143 C1.4645527,4.49337143 1.86131408,4.68697143 2.03453631,5.07333333 C2.20693367,5.45969524 2.29354479,5.96841905 2.29354479,6.60034286 L2.29354479,13.9739048 Z M20.5808629,8.49611429 C20.5808629,7.00765714 20.2418422,5.86365714 19.5646258,5.0624381 C18.8874094,4.26205714 17.8439517,3.86228571 16.4342527,3.86228571 C15.7842569,3.86228571 15.20355,3.99889524 14.692132,4.27295238 C14.180714,4.54617143 13.7451838,4.91493333 13.3863663,5.3784 C13.026724,5.84186667 12.7536928,6.38662857 12.5672727,7.01100952 C12.3808525,7.63622857 12.2876425,8.30670476 12.2876425,9.02327619 C12.2876425,9.73984762 12.3767282,10.4103238 12.5565494,11.0355429 C12.7363705,11.6599238 13.0094018,12.2046857 13.375643,12.6673143 C13.7418843,13.131619 14.1947367,13.500381 14.7342002,13.7736 C15.2728389,14.0476571 15.9088119,14.1842667 16.6412945,14.1842667 C17.4290432,14.1842667 18.1310056,14.0158095 18.7455321,13.6788952 C19.3608835,13.341981 19.9036464,12.7729143 20.3738211,11.9725333 L19.9589126,11.6565714 C19.5992702,12.1904381 19.195085,12.6044571 18.7455321,12.8994667 C18.2968041,13.1944762 17.7334194,13.341981 17.056203,13.341981 C16.613249,13.341981 16.2197871,13.2439238 15.8741675,13.0469714 C15.5285479,12.8508571 15.234895,12.5734476 14.9932087,12.2147429 C14.7506976,11.8568762 14.5684018,11.4319619 14.4438468,10.94 C14.3192918,10.4488762 14.2566018,9.91500952 14.2566018,9.3392381 L20.5396195,9.3392381 L20.5808629,8.49611429 Z M14.2566018,8.49611429 C14.2566018,7.9488381 14.3118679,7.44346667 14.4232251,6.98 C14.5329325,6.51653333 14.685533,6.11592381 14.879377,5.77900952 C15.072396,5.44209524 15.3008844,5.17809524 15.5631923,4.98868571 C15.8255003,4.79927619 16.1158537,4.70457143 16.4342527,4.70457143 C17.1667352,4.70457143 17.7127977,5.03142857 18.07244,5.68430476 C18.4312575,6.33718095 18.6110787,7.27500952 18.6110787,8.49611429 L14.2566018,8.49611429 Z M24.4164979,2.5976 C24.4164979,2.07881905 24.3884524,1.65390476 24.3340111,1.32369524 C24.2779201,0.993485714 24.1781111,0.73367619 24.0329344,0.544266667 C23.8877577,0.354857143 23.6939138,0.228304762 23.4522275,0.164609524 C23.2105413,0.101752381 22.9094645,0.0699047619 22.5506471,0.0699047619 L20.6847962,0.0699047619 L20.6847962,0.491466667 L21.0988798,0.491466667 C21.7208301,0.491466667 22.1184164,0.684228571 22.2916386,1.07059048 C22.4640359,1.45695238 22.5506471,1.96567619 22.5506471,2.5976 L22.5506471,13.9739048 L24.4164979,13.9739048 L24.4164979,9.12887619 L26.9042991,12.4996952 C27.3744737,13.131619 27.8619705,13.570781 28.3667896,13.8163429 C28.8707838,14.0610667 29.3855013,14.1842667 29.910942,14.1842667 C30.1188087,14.1842667 30.3151272,14.1633143 30.5023722,14.1214095 C30.6887923,14.0786667 30.8372685,14.0300571 30.9478008,13.9739048 L30.9478008,13.5523429 C30.5328923,13.482781 30.1493288,13.3151619 29.7971103,13.0486476 C29.4448917,12.7838095 29.0679272,12.3848762 28.6670415,11.8535238 L26.075307,8.49611429 L28.3560663,5.54685714 C28.6183743,5.22419048 28.9227505,4.98533333 29.26837,4.83112381 C29.6139896,4.67691429 29.9662082,4.59897143 30.3258505,4.59897143 L30.3258505,4.07264762 L29.7039002,4.07264762 C29.0266838,4.07264762 28.4872203,4.1992 28.0863346,4.45146667 C27.6854488,4.70457143 27.3258065,5.03478095 27.0082324,5.44209524 L24.4164979,8.81291429 L24.4164979,2.5976 Z M32.5851633,11.4462095 C32.5851633,12.4016381 32.8169511,13.096419 33.2805268,13.5313905 C33.7432776,13.9672 34.3404819,14.1842667 35.0737893,14.1842667 C35.4326068,14.1842667 35.7510057,14.1566095 36.0273364,14.1004571 C36.3036671,14.0434667 36.5461782,13.9739048 36.75322,13.8892571 C36.9602618,13.8054476 37.1367835,13.7140952 37.2819603,13.6160381 C37.427137,13.517981 37.5549915,13.4266286 37.6655238,13.341981 L37.458482,12.920419 C37.2506153,13.0327238 37.0295507,13.131619 36.7944634,13.2154286 C36.5593761,13.3000762 36.2624237,13.341981 35.9027814,13.341981 C34.9352115,13.341981 34.451839,12.7100571 34.451839,11.4462095 L34.451839,4.91493333 L36.9396401,4.91493333 L36.9396401,4.07264762 L34.451839,4.07264762 L34.451839,0.913028571 L33.622022,0.913028571 L32.5851633,2.17687619 L32.5851633,4.07264762 L31.1342209,4.07264762 L31.1342209,4.91493333 L32.5851633,4.91493333 L32.5851633,11.4462095 Z M45.1916171,10.7187429 C45.0670621,11.2459048 44.8913653,11.7026667 44.6628769,12.0881905 C44.4352134,12.4745524 44.1621822,12.7804571 43.8437832,13.0050667 C43.5262092,13.2296762 43.1731658,13.341981 42.7863028,13.341981 C42.3994398,13.341981 42.0472213,13.2296762 41.7296472,13.0050667 C41.4112482,12.7804571 41.138217,12.4745524 40.9105535,12.0881905 C40.6820651,11.7026667 40.5055434,11.2459048 40.3818133,10.7187429 C40.2572582,10.192419 40.1945683,9.62670476 40.1945683,9.02327619 C40.1945683,8.41984762 40.2572582,7.85413333 40.3818133,7.32697143 C40.5055434,6.80064762 40.6820651,6.34388571 40.9105535,5.9583619 C41.138217,5.572 41.4112482,5.26609524 41.7296472,5.04148571 C42.0472213,4.81687619 42.3994398,4.70457143 42.7863028,4.70457143 C43.1731658,4.70457143 43.5262092,4.81687619 43.8437832,5.04148571 C44.1621822,5.26609524 44.4352134,5.572 44.6628769,5.9583619 C44.8913653,6.34388571 45.0670621,6.80064762 45.1916171,7.32697143 C45.3161722,7.85413333 45.3788621,8.41984762 45.3788621,9.02327619 C45.3788621,9.62670476 45.3161722,10.192419 45.1916171,10.7187429 L45.1916171,10.7187429 Z M38.5258608,11.0355429 C38.7263037,11.6599238 39.0232561,12.2046857 39.4175429,12.6673143 C39.8110048,13.131619 40.2886032,13.500381 40.8478636,13.7736 C41.4079488,14.0476571 42.0538202,14.1842667 42.7863028,14.1842667 C43.5055875,14.1842667 44.1481594,14.0476571 44.7148436,13.7736 C45.2815277,13.500381 45.7624256,13.131619 46.1558876,12.6673143 C46.5501743,12.2046857 46.8471267,11.6599238 47.0475696,11.0355429 C47.2480125,10.4103238 47.3478215,9.73984762 47.3478215,9.02327619 C47.3478215,8.30670476 47.2480125,7.63622857 47.0475696,7.01100952 C46.8471267,6.38662857 46.5501743,5.84186667 46.1558876,5.3784 C45.7624256,4.91493333 45.2815277,4.54617143 44.7148436,4.27295238 C44.1481594,3.99889524 43.5055875,3.86228571 42.7863028,3.86228571 C42.0538202,3.86228571 41.4079488,3.99889524 40.8478636,4.27295238 C40.2886032,4.54617143 39.8110048,4.91493333 39.4175429,5.3784 C39.0232561,5.84186667 38.7263037,6.38662857 38.5258608,7.01100952 C38.325418,7.63622857 38.2247841,8.30670476 38.2247841,9.02327619 C38.2247841,9.73984762 38.325418,10.4103238 38.5258608,11.0355429 L38.5258608,11.0355429 Z M49.5254723,13.9739048 L51.3913232,13.9739048 L51.3913232,6.17961905 C51.598365,5.85611429 51.8746957,5.59965714 52.2211401,5.41024762 C52.5659349,5.2208381 52.9461989,5.12613333 53.3611074,5.12613333 C53.7207497,5.12613333 54.0482222,5.17809524 54.3459995,5.28369524 C54.6429519,5.38929524 54.8673159,5.54685714 55.0199164,5.75805714 L55.8489085,5.12613333 C55.7383762,4.91493333 55.627844,4.73306667 55.5173117,4.57801905 C55.4067794,4.42380952 55.2756254,4.29055238 55.1238498,4.17824762 C54.9712492,4.06594286 54.7782302,3.98548571 54.5431429,3.9352 C54.3080556,3.88659048 54.086991,3.86228571 53.8791243,3.86228571 C53.257174,3.86228571 52.7391571,3.988 52.3242486,4.24110476 C51.9093401,4.49337143 51.598365,4.75401905 51.3913232,5.02053333 L51.2873898,5.02053333 C51.1768576,4.69786667 50.987138,4.45900952 50.7174062,4.3039619 C50.4476745,4.14975238 50.0500882,4.07264762 49.5254723,4.07264762 L47.8666633,4.07264762 L47.8666633,4.49337143 L48.0737051,4.49337143 C48.6956554,4.49337143 49.0932416,4.68697143 49.2664638,5.07333333 C49.4388612,5.45969524 49.5254723,5.96841905 49.5254723,6.60034286 L49.5254723,13.9739048 Z M63.3964485,10.7187429 C63.2718934,11.2459048 63.0961966,11.7026667 62.8677082,12.0881905 C62.6400447,12.4745524 62.3661886,12.7804571 62.0486145,13.0050667 C61.7302156,13.2296762 61.3779971,13.341981 60.9911341,13.341981 C60.6042711,13.341981 60.2520526,13.2296762 59.9336536,13.0050667 C59.6160795,12.7804571 59.3430483,12.4745524 59.1145599,12.0881905 C58.8868964,11.7026667 58.7103748,11.2459048 58.5858197,10.7187429 C58.4620896,10.192419 58.3993996,9.62670476 58.3993996,9.02327619 C58.3993996,8.41984762 58.4620896,7.85413333 58.5858197,7.32697143 C58.7103748,6.80064762 58.8868964,6.34388571 59.1145599,5.9583619 C59.3430483,5.572 59.6160795,5.26609524 59.9336536,5.04148571 C60.2520526,4.81687619 60.6042711,4.70457143 60.9911341,4.70457143 C61.3779971,4.70457143 61.7302156,4.81687619 62.0486145,5.04148571 C62.3661886,5.26609524 62.6400447,5.572 62.8677082,5.9583619 C63.0961966,6.34388571 63.2718934,6.80064762 63.3964485,7.32697143 C63.5210035,7.85413333 63.5828686,8.41984762 63.5828686,9.02327619 C63.5828686,9.62670476 63.5210035,10.192419 63.3964485,10.7187429 L63.3964485,10.7187429 Z M56.7306921,11.0355429 C56.9303101,11.6599238 57.2280874,12.2046857 57.6223742,12.6673143 C58.0158361,13.131619 58.4926097,13.500381 59.0526949,13.7736 C59.6127801,14.0476571 60.2586515,14.1842667 60.9911341,14.1842667 C61.7095939,14.1842667 62.3529907,14.0476571 62.9196749,13.7736 C63.486359,13.500381 63.9664321,13.131619 64.3607189,12.6673143 C64.7541808,12.2046857 65.051958,11.6599238 65.2524009,11.0355429 C65.4520189,10.4103238 65.5526528,9.73984762 65.5526528,9.02327619 C65.5526528,8.30670476 65.4520189,7.63622857 65.2524009,7.01100952 C65.051958,6.38662857 64.7541808,5.84186667 64.3607189,5.3784 C63.9664321,4.91493333 63.486359,4.54617143 62.9196749,4.27295238 C62.3529907,3.99889524 61.7095939,3.86228571 60.9911341,3.86228571 C60.2586515,3.86228571 59.6127801,3.99889524 59.0526949,4.27295238 C58.4926097,4.54617143 58.0158361,4.91493333 57.6223742,5.3784 C57.2280874,5.84186667 56.9303101,6.38662857 56.7306921,7.01100952 C56.5302493,7.63622857 56.4296154,8.30670476 56.4296154,9.02327619 C56.4296154,9.73984762 56.5302493,10.4103238 56.7306921,11.0355429 L56.7306921,11.0355429 Z M69.9277513,6.49558095 C69.692664,5.94746667 69.436955,5.5016 69.1606243,5.15714286 C68.8842936,4.81352381 68.5939402,4.54617143 68.2903888,4.3567619 C67.9860126,4.16735238 67.6709132,4.03828571 67.3467401,3.96704762 C67.0217422,3.89748571 66.7074676,3.86228571 66.4030914,3.86228571 C66.3065819,3.86228571 66.1787274,3.86899048 66.0195279,3.8824 C65.8603284,3.89748571 65.7539205,3.90419048 65.6986544,3.90419048 L65.6986544,4.32575238 C65.9469395,4.3391619 66.1680041,4.38860952 66.361848,4.47325714 C66.5548671,4.55706667 66.7346883,4.68361905 66.9004867,4.85207619 C67.06711,5.02053333 67.2254846,5.2384381 67.3780851,5.50495238 C67.5298608,5.77230476 67.6890602,6.10167619 67.8548587,6.49558095 L71.0685434,14.1842667 L71.4834519,14.1842667 L75.7339954,4.07264762 L74.6971367,4.07264762 L71.794427,11.0246476 L69.9277513,6.49558095 Z M76.3765674,17.2391238 C77.10905,16.8184 77.6724347,16.2878857 78.0658966,15.6492571 C78.4601834,15.0097905 78.6573268,14.240419 78.6573268,13.341981 C78.6573268,12.8642667 78.5360712,12.4996952 78.2943849,12.2465905 C78.0518738,11.9934857 77.7244013,11.8669333 77.3094928,11.8669333 C76.9498505,11.8669333 76.6528981,11.986781 76.4178108,12.2256381 C76.1827235,12.4644952 76.0655923,12.7662095 76.0655923,13.131619 C76.0655923,13.4542857 76.1761246,13.7283429 76.3971891,13.9529524 C76.6182537,14.1775619 76.8879854,14.2898667 77.2055595,14.2898667 L77.8275098,14.0786667 C77.8275098,14.7114286 77.6823331,15.252 77.3919796,15.701219 C77.102451,16.1504381 76.6941415,16.5577524 76.1687007,16.9231619 L76.3765674,17.2391238 Z M91.8651092,9.69710476 C91.4089573,9.26213333 90.7383399,8.86152381 89.8532568,8.49611429 L88.6093562,7.96979048 C88.0839154,7.74518095 87.6764308,7.48201905 87.3860773,7.18030476 C87.0957239,6.87775238 86.9505471,6.54502857 86.9505471,6.17961905 C86.9505471,5.75805714 87.1270688,5.40689524 87.4792874,5.12613333 C87.8323308,4.84537143 88.3470482,4.70457143 89.0242647,4.70457143 C89.8532568,4.70457143 90.4999531,4.90152381 90.9627039,5.29459048 C91.4254547,5.68765714 91.7125087,6.22822857 91.823041,6.91630476 L92.2379494,6.91630476 C92.2379494,6.38327619 92.2173277,5.94746667 92.1760844,5.61055238 C92.1340161,5.2736381 91.9822404,4.97108571 91.7199325,4.70457143 C91.4567997,4.43805714 91.0699367,4.23104762 90.5585187,4.08354286 C90.0471007,3.9352 89.3971049,3.86228571 88.6093562,3.86228571 C88.1119609,3.86228571 87.6558091,3.92179048 87.2409006,4.0408 C86.8259921,4.16064762 86.4671746,4.33580952 86.1627984,4.5679619 C85.8584222,4.79927619 85.6200355,5.08422857 85.4476381,5.42030476 C85.2744159,5.75805714 85.1886296,6.15112381 85.1886296,6.60034286 C85.1886296,7.28841905 85.4063947,7.85413333 85.8419249,8.29664762 C86.2766302,8.73832381 86.8886821,9.12133333 87.6764308,9.4448381 L88.9203313,9.9711619 C89.5422816,10.2376762 90.0091568,10.5159238 90.3201319,10.8033905 C90.6311071,11.0916952 90.7870071,11.4462095 90.7870071,11.8669333 C90.7870071,12.2884952 90.6030616,12.6396571 90.2368203,12.920419 C89.870579,13.202019 89.2939964,13.341981 88.5062477,13.341981 C87.6211646,13.341981 86.9439482,13.1450286 86.4737736,12.7519619 C86.003599,12.3588952 85.7132455,11.8183238 85.6027132,11.1294095 L85.1886296,11.1294095 C85.1886296,11.6641143 85.2092513,12.0990857 85.2504947,12.436 C85.2917381,12.7729143 85.4443386,13.0754667 85.7066466,13.341981 C85.9689545,13.6084952 86.3632413,13.8163429 86.8886821,13.9630095 C87.4141228,14.1113524 88.0913392,14.1842667 88.9203313,14.1842667 C89.4317493,14.1842667 89.9118224,14.1247619 90.3613753,14.0057524 C90.8109282,13.8867429 91.1944917,13.7107429 91.5120658,13.4785905 C91.8304648,13.2472762 92.0828743,12.9623238 92.2692944,12.6254095 C92.4557145,12.2884952 92.5489246,11.8954286 92.5489246,11.4462095 C92.5489246,10.7153905 92.3212611,10.1329143 91.8651092,9.69710476 L91.8651092,9.69710476 Z M99.7227994,11.9725333 C99.5157576,12.2960381 99.2633481,12.5868571 98.9663957,12.8466667 C98.6686184,13.1064762 98.2644332,13.236381 97.7530152,13.236381 C97.4907073,13.236381 97.2415972,13.1978286 97.0065099,13.1207238 C96.7714226,13.043619 96.5643808,12.920419 96.3845596,12.7519619 C96.2047385,12.5835048 96.0595617,12.3731429 95.9490295,12.1200381 C95.8384972,11.8669333 95.783231,11.5719238 95.783231,11.2350095 C95.783231,10.6030857 96.076884,10.0943619 96.6650147,9.708 C97.2523205,9.3216381 98.0639904,9.12887619 99.1008491,9.12887619 L99.7227994,9.12887619 L99.7227994,11.9725333 Z M101.589475,13.9739048 L101.589475,8.28575238 C101.589475,7.34540952 101.488841,6.58358095 101.288398,6.00026667 C101.087956,5.41779048 100.818224,4.96773333 100.480028,4.65177143 C100.141007,4.33580952 99.7541444,4.12544762 99.3186142,4.01984762 C98.8830841,3.91508571 98.4302317,3.86228571 97.9608819,3.86228571 C97.642483,3.86228571 97.3282083,3.87653333 97.0172332,3.90419048 C96.7062581,3.93268571 96.4126051,3.97459048 96.1362744,4.03074286 C95.8591189,4.08689524 95.6075342,4.164 95.3790458,4.26205714 C95.1513823,4.36095238 94.9748606,4.47325714 94.8503056,4.59897143 C94.5879977,4.86632381 94.436222,5.15714286 94.3941537,5.47310476 C94.3529104,5.78906667 94.3322887,6.13017143 94.3322887,6.49558095 L95.2652141,6.49558095 C95.4169898,5.80750476 95.690021,5.33649524 96.0843078,5.08422857 C96.4777697,4.83112381 96.9652665,4.70457143 97.5459734,4.70457143 C97.8495248,4.70457143 98.1365787,4.75401905 98.4063105,4.85207619 C98.6760422,4.95013333 98.9070052,5.12948571 99.1008491,5.38929524 C99.2946931,5.64910476 99.4464687,6.01451429 99.557001,6.48468571 C99.6675333,6.95485714 99.7227994,7.55577143 99.7227994,8.28575238 L99.1008491,8.28575238 C98.3964121,8.28575238 97.7257946,8.33184762 97.0898216,8.4223619 C96.4538485,8.51455238 95.8937633,8.67211429 95.4103908,8.89672381 C94.9261934,9.12133333 94.5393305,9.42388571 94.248977,9.80270476 C93.9586236,10.1823619 93.8134468,10.6592381 93.8134468,11.2350095 C93.8134468,11.810781 93.9173802,12.2884952 94.124422,12.6673143 C94.3322887,13.0469714 94.5879977,13.3486857 94.8923739,13.5732952 C95.1959252,13.7987429 95.5209231,13.9563048 95.8665427,14.0476571 C96.2121623,14.1390095 96.5297364,14.1842667 96.8200898,14.1842667 C97.6078385,14.1842667 98.2372126,14.0585524 98.7073872,13.8054476 C99.176737,13.5523429 99.5157576,13.2933714 99.7227994,13.026019 L99.8267328,13.026019 L100.552616,13.9739048 L101.589475,13.9739048 Z M106.482591,6.49558095 C106.246678,5.94746667 105.991794,5.5016 105.715464,5.15714286 C105.438308,4.81352381 105.147955,4.54617143 104.844403,4.3567619 C104.540027,4.16735238 104.225752,4.03828571 103.900755,3.96704762 C103.575757,3.89748571 103.261482,3.86228571 102.957106,3.86228571 C102.860596,3.86228571 102.732742,3.86899048 102.573542,3.8824 C102.415168,3.89748571 102.307935,3.90419048 102.252669,3.90419048 L102.252669,4.32575238 C102.500954,4.3391619 102.722019,4.38860952 102.915862,4.47325714 C103.109706,4.55706667 103.289528,4.68361905 103.455326,4.85207619 C103.621124,5.02053333 103.779499,5.2384381 103.9321,5.50495238 C104.083875,5.77230476 104.243075,6.10167619 104.408873,6.49558095 L107.622558,14.1842667 L108.037466,14.1842667 L112.28801,4.07264762 L111.251151,4.07264762 L108.348442,11.0246476 L106.482591,6.49558095 Z M121.307114,8.49611429 C121.307114,7.00765714 120.968093,5.86365714 120.290877,5.0624381 C119.61366,4.26205714 118.570203,3.86228571 117.160504,3.86228571 C116.510508,3.86228571 115.929801,3.99889524 115.418383,4.27295238 C114.906965,4.54617143 114.471435,4.91493333 114.112617,5.3784 C113.752975,5.84186667 113.479944,6.38662857 113.293524,7.01100952 C113.107104,7.63622857 113.013894,8.30670476 113.013894,9.02327619 C113.013894,9.73984762 113.102979,10.4103238 113.2828,11.0355429 C113.462622,11.6599238 113.735653,12.2046857 114.101894,12.6673143 C114.468135,13.131619 114.920988,13.500381 115.460451,13.7736 C115.99909,14.0476571 116.635063,14.1842667 117.367546,14.1842667 C118.155294,14.1842667 118.857257,14.0158095 119.471783,13.6788952 C120.087135,13.341981 120.629897,12.7729143 121.100072,11.9725333 L120.685164,11.6565714 C120.325521,12.1904381 119.921336,12.6044571 119.471783,12.8994667 C119.023055,13.1944762 118.45967,13.341981 117.782454,13.341981 C117.3395,13.341981 116.946038,13.2439238 116.600419,13.0469714 C116.254799,12.8508571 115.961146,12.5734476 115.71946,12.2147429 C115.476949,11.8568762 115.294653,11.4319619 115.170098,10.94 C115.045543,10.4488762 114.982853,9.91500952 114.982853,9.3392381 L121.265871,9.3392381 L121.307114,8.49611429 Z M114.982853,8.49611429 C114.982853,7.9488381 115.038119,7.44346667 115.149476,6.98 C115.259184,6.51653333 115.411784,6.11592381 115.605628,5.77900952 C115.798647,5.44209524 116.027135,5.17809524 116.289443,4.98868571 C116.551751,4.79927619 116.842105,4.70457143 117.160504,4.70457143 C117.892986,4.70457143 118.439049,5.03142857 118.798691,5.68430476 C119.157509,6.33718095 119.33733,7.27500952 119.33733,8.49611429 L114.982853,8.49611429 Z M125.226061,2.5976 C125.226061,2.07881905 125.198015,1.65390476 125.142749,1.32369524 C125.087483,0.993485714 124.987674,0.73367619 124.842497,0.544266667 C124.69732,0.354857143 124.503476,0.228304762 124.26179,0.164609524 C124.019279,0.101752381 123.719027,0.0699047619 123.359385,0.0699047619 L121.493534,0.0699047619 L121.493534,0.491466667 L121.908443,0.491466667 C122.530393,0.491466667 122.927154,0.684228571 123.100376,1.07059048 C123.272774,1.45695238 123.359385,1.96567619 123.359385,2.5976 L123.359385,13.9739048 L125.226061,13.9739048 L125.226061,2.5976 Z M130.056486,6.60034286 C130.056486,6.0815619 130.028441,5.65664762 129.973999,5.3264381 C129.917908,4.99622857 129.818099,4.73641905 129.672923,4.54617143 C129.527746,4.3567619 129.333902,4.23104762 129.092216,4.16735238 C128.85053,4.10449524 128.549453,4.07264762 128.190635,4.07264762 L126.324784,4.07264762 L126.324784,4.49337143 L126.738868,4.49337143 C127.360818,4.49337143 127.758405,4.68697143 127.931627,5.07333333 C128.104024,5.45969524 128.190635,5.96841905 128.190635,6.60034286 L128.190635,13.9739048 L130.056486,13.9739048 L130.056486,6.60034286 Z M129.590436,0.913028571 C129.361948,0.64567619 129.088916,0.512419048 128.771342,0.512419048 C128.480989,0.512419048 128.249201,0.597066667 128.076804,0.76552381 C127.903581,0.933142857 127.81697,1.16529524 127.81697,1.46030476 C127.81697,1.82571429 127.931627,2.14167619 128.15929,2.40819048 C128.387779,2.67554286 128.659985,2.8088 128.978384,2.8088 C129.268737,2.8088 129.4997,2.72415238 129.672923,2.55569524 C129.84532,2.3872381 129.931931,2.15508571 129.931931,1.86007619 C129.931931,1.49550476 129.818099,1.17954286 129.590436,0.913028571 L129.590436,0.913028571 Z M140.298869,8.49611429 C140.298869,7.00765714 139.959848,5.86365714 139.282632,5.0624381 C138.605416,4.26205714 137.561958,3.86228571 136.152259,3.86228571 C135.502263,3.86228571 134.921556,3.99889524 134.410138,4.27295238 C133.89872,4.54617143 133.46319,4.91493333 133.104373,5.3784 C132.74473,5.84186667 132.471699,6.38662857 132.285279,7.01100952 C132.098859,7.63622857 132.005649,8.30670476 132.005649,9.02327619 C132.005649,9.73984762 132.094734,10.4103238 132.274556,11.0355429 C132.454377,11.6599238 132.727408,12.2046857 133.093649,12.6673143 C133.459891,13.131619 133.912743,13.500381 134.452206,13.7736 C134.990845,14.0476571 135.626818,14.1842667 136.359301,14.1842667 C137.147049,14.1842667 137.849012,14.0158095 138.464363,13.6788952 C139.07889,13.341981 139.621653,12.7729143 140.091827,11.9725333 L139.676919,11.6565714 C139.317276,12.1904381 138.913091,12.6044571 138.464363,12.8994667 C138.01481,13.1944762 137.451426,13.341981 136.774209,13.341981 C136.331255,13.341981 135.937793,13.2439238 135.592174,13.0469714 C135.246554,12.8508571 134.952901,12.5734476 134.711215,12.2147429 C134.469529,11.8568762 134.286408,11.4319619 134.161853,10.94 C134.037298,10.4488762 133.975433,9.91500952 133.975433,9.3392381 L140.257626,9.3392381 L140.298869,8.49611429 Z M133.975433,8.49611429 C133.975433,7.9488381 134.029874,7.44346667 134.141231,6.98 C134.251764,6.51653333 134.403539,6.11592381 134.597383,5.77900952 C134.790402,5.44209524 135.018891,5.17809524 135.281199,4.98868571 C135.543506,4.79927619 135.83386,4.70457143 136.152259,4.70457143 C136.884741,4.70457143 137.430804,5.03142857 137.790446,5.68430476 C138.149264,6.33718095 138.329085,7.27500952 138.329085,8.49611429 L133.975433,8.49611429 Z M144.798523,6.49558095 C144.563435,5.94746667 144.307726,5.5016 144.031396,5.15714286 C143.75424,4.81352381 143.463887,4.54617143 143.160335,4.3567619 C142.855959,4.16735238 142.541684,4.03828571 142.216687,3.96704762 C141.891689,3.89748571 141.577414,3.86228571 141.273863,3.86228571 C141.176528,3.86228571 141.048674,3.86899048 140.890299,3.8824 C140.7311,3.89748571 140.623867,3.90419048 140.568601,3.90419048 L140.568601,4.32575238 C140.817711,4.3391619 141.037951,4.38860952 141.231794,4.47325714 C141.425638,4.55706667 141.60546,4.68361905 141.771258,4.85207619 C141.937056,5.02053333 142.095431,5.2384381 142.248032,5.50495238 C142.399807,5.77230476 142.559007,6.10167619 142.724805,6.49558095 L145.93849,14.1842667 L146.353398,14.1842667 L150.603942,4.07264762 L149.567083,4.07264762 L146.664374,11.0246476 L144.798523,6.49558095 Z" id="Fill-3" fill="#FFFFFF" mask="url(#mask-2)"></path>
                </g>
                <path d="M38.2134834,27.783619 C38.3454623,28.0836571 38.54673,28.3451429 38.8172866,28.5680762 C39.0870184,28.7910095 39.4210898,28.9661714 39.8186761,29.0960762 C40.2154375,29.2251429 40.6839623,29.2896762 41.2242507,29.2896762 C41.8363026,29.2896762 42.3807153,29.1966476 42.8599635,29.0105905 C43.3392116,28.8236952 43.7615439,28.5907048 44.1286101,28.311619 L44.7398371,28.979581 L46.4217424,28.979581 L45.0607106,27.4726857 C45.2850747,27.2246095 45.4838678,26.9756952 45.65709,26.727619 C45.8303122,26.4787048 45.9730144,26.2566095 46.0851964,26.0596571 C46.2171752,25.8316952 46.3293572,25.6146286 46.4217424,25.407619 L46.1157165,25.1746286 C46.0035345,25.371581 45.881454,25.5785905 45.7486503,25.7956571 C45.6265699,25.9825524 45.4813932,26.1895619 45.3131202,26.4166857 C45.1448471,26.6446476 44.9543027,26.8776381 44.7398371,27.1156571 L41.6680296,23.6987429 C41.9633322,23.4917333 42.2462619,23.2796952 42.5159936,23.0626286 C42.7857254,22.8447238 43.0232873,22.6150857 43.2270296,22.3712 C43.430772,22.1281524 43.5932709,21.8616381 43.7161762,21.5716571 C43.8382566,21.2816762 43.8992968,20.9556571 43.8992968,20.5927619 C43.8992968,19.9717333 43.679882,19.4546286 43.2418772,19.0406095 C42.8038725,18.6265905 42.1819222,18.419581 41.3776761,18.419581 C40.5313618,18.419581 39.8615692,18.6366476 39.3674734,19.070781 C38.8733776,19.5065905 38.6259173,20.0966095 38.6259173,20.8416762 C38.6259173,21.2875429 38.7051046,21.6982095 38.8634792,22.0761905 C39.0210289,22.4541714 39.201675,22.7776762 39.4054173,23.0467048 C39.6396798,23.3676952 39.9044623,23.6576762 40.2005898,23.9166476 C39.925084,24.1236571 39.6553522,24.3281524 39.3905697,24.5301333 C39.1249623,24.7321143 38.8906998,24.949181 38.6869575,25.1821714 C38.4832152,25.4151619 38.3207162,25.6640762 38.1978109,25.9280762 C38.0757305,26.1920762 38.0146903,26.4845714 38.0146903,26.8055619 C38.0146903,27.1567238 38.0806797,27.483581 38.2134834,27.783619 L38.2134834,27.783619 Z M39.4664575,26.6496762 C39.4664575,26.1836952 39.5786395,25.777219 39.8030036,25.4310857 C40.0273676,25.0841143 40.3127718,24.7606095 40.6592163,24.4605714 L43.8077365,27.9545905 C43.5017106,28.1926095 43.1602153,28.3836952 42.7832508,28.5286857 C42.4062862,28.6736762 41.983129,28.7465905 41.5146042,28.7465905 C40.149448,28.7465905 39.4664575,28.047619 39.4664575,26.6496762 L39.4664575,26.6496762 Z M40.193166,19.9566476 C40.2690539,19.7186286 40.3713375,19.5241905 40.4983671,19.3741714 C40.6262216,19.2241524 40.7656242,19.1177143 40.9190496,19.0556952 C41.0716502,18.9936762 41.2242507,18.9626667 41.3776761,18.9626667 C41.509655,18.9626667 41.6474079,18.9936762 41.79011,19.0556952 C41.9328121,19.1177143 42.0656158,19.2191238 42.1876963,19.3582476 C42.3097767,19.4982095 42.4087608,19.6817524 42.4854735,19.9097143 C42.5621862,20.1376762 42.6001301,20.4176 42.6001301,20.7486476 C42.6001301,21.2665905 42.4623772,21.7141333 42.1876963,22.0921143 C41.9121904,22.4700952 41.5814185,22.8246095 41.1937306,23.1556571 C41.1632105,23.1355429 41.0889724,23.0601143 40.9726661,22.9302095 C40.85471,22.8011429 40.7301549,22.6326857 40.5981761,22.4256762 C40.4653724,22.2186667 40.3457666,21.9806476 40.2385338,21.711619 C40.1313009,21.4425905 40.0785094,21.1526095 40.0785094,20.8416762 C40.0785094,20.4896762 40.1164533,20.1946667 40.193166,19.9566476 L40.193166,19.9566476 Z M52.7031104,23.0777143 C52.774049,22.9645714 52.861485,22.8505905 52.9629437,22.7366095 C53.0652273,22.6226286 53.1798839,22.5220571 53.3069136,22.433219 C53.4339432,22.3460571 53.5791199,22.2756571 53.7424437,22.2236952 C53.9057675,22.1725714 54.0938374,22.1457524 54.308303,22.1457524 C54.6135041,22.1457524 54.875812,22.2295619 55.0952268,22.3946667 C55.3146417,22.5606095 55.4977623,22.7860571 55.6454136,23.0701714 C55.793065,23.3551238 55.9002978,23.6912 55.9662872,24.0800762 C56.0331015,24.4681143 56.0660962,24.8846476 56.0660962,25.3296762 C56.0660962,25.7755429 56.029802,26.1920762 55.9588634,26.5801143 C55.8870999,26.9681524 55.7757427,27.3050667 55.6223173,27.589181 C55.4697168,27.8741333 55.2733983,28.099581 55.0341866,28.2646857 C54.794975,28.4306286 54.5013221,28.5136 54.1557025,28.5136 C53.9206152,28.5136 53.6789289,28.4641524 53.428994,28.3660952 C53.1798839,28.2680381 52.9373728,28.1616 52.7031104,28.047619 L52.7031104,23.0777143 Z M51.3280558,31.9296762 L52.7031104,31.9296762 L52.7031104,28.6686476 C52.9373728,28.7826286 53.2079294,28.8890667 53.5131305,28.9871238 C53.8191564,29.085181 54.1862226,29.1346286 54.6135041,29.1346286 C55.1133739,29.1346286 55.5439549,29.0340571 55.905247,28.8312381 C56.2673639,28.6300952 56.5676158,28.3585524 56.8068274,28.0166095 C57.046864,27.6746667 57.2250354,27.2740571 57.3421666,26.8131048 C57.4592978,26.3521524 57.5178634,25.8576762 57.5178634,25.3296762 C57.5178634,24.8016762 57.4592978,24.3080381 57.3421666,23.8470857 C57.2250354,23.3861333 57.0518132,22.9846857 56.8224999,22.643581 C56.5931867,22.3016381 56.3077824,22.0300952 55.9662872,21.8281143 C55.6247919,21.6261333 55.225556,21.5247238 54.7669295,21.5247238 C54.196121,21.5247238 53.7473929,21.6185905 53.4215702,21.8046476 C53.0957474,21.9907048 52.8557109,22.1826286 52.7031104,22.379581 L52.6272225,22.379581 C52.5455606,22.1415619 52.4053331,21.9655619 52.20654,21.8507429 C52.0077468,21.7376 51.7149188,21.6806095 51.3280558,21.6806095 L49.9521764,21.6806095 L49.9521764,21.9907048 L50.2573775,21.9907048 C50.7160039,21.9907048 51.008832,22.133181 51.1366865,22.4181333 C51.2637161,22.7030857 51.3280558,23.0777143 51.3280558,23.5436952 L51.3280558,31.9296762 Z M62.8671308,27.5045333 C62.7145303,27.7425524 62.528935,27.9571048 62.3095202,28.1490286 C62.0901054,28.3401143 61.7923281,28.4356571 61.4153636,28.4356571 C61.2215197,28.4356571 61.038399,28.4071619 60.8651768,28.3501714 C60.6919546,28.293181 60.539354,28.2026667 60.4065503,28.0786286 C60.2737466,27.9545905 60.1673387,27.7995429 60.0856768,27.6126476 C60.0040148,27.4265905 59.9635963,27.2086857 59.9635963,26.9606095 C59.9635963,26.4946286 60.1797117,26.1191619 60.6127672,25.8342095 C61.0458228,25.5500952 61.6446768,25.407619 62.4093292,25.407619 L62.8671308,25.407619 L62.8671308,27.5045333 Z M64.2430102,28.979581 L64.2430102,24.7865905 C64.2430102,24.0926476 64.1687721,23.5311238 64.0211208,23.101181 C63.8734695,22.6720762 63.6746763,22.3401905 63.4255663,22.1072 C63.1756314,21.8742095 62.8902271,21.7191619 62.5693536,21.641219 C62.24848,21.5641143 61.9144086,21.5247238 61.5679641,21.5247238 C61.3337017,21.5247238 61.1019138,21.535619 60.8726006,21.5557333 C60.6432874,21.5766857 60.427172,21.6076952 60.2234297,21.6496 C60.0196873,21.6906667 59.8332672,21.7476571 59.6649942,21.8197333 C59.497546,21.8926476 59.3672169,21.975619 59.2756566,22.0686476 C59.0818127,22.2656 58.9696307,22.4801524 58.9391106,22.7131429 C58.9085905,22.9461333 58.8937429,23.1967238 58.8937429,23.4665905 L59.5808577,23.4665905 C59.6930397,22.9595429 59.8943074,22.6125714 60.1846609,22.4256762 C60.4750143,22.239619 60.8346567,22.1457524 61.262763,22.1457524 C61.4863022,22.1457524 61.6982932,22.1826286 61.8970863,22.2547048 C62.0958795,22.327619 62.2658022,22.4592 62.4093292,22.6511238 C62.5512065,22.8422095 62.6633885,23.1120762 62.7450504,23.4582095 C62.8267123,23.805181 62.8671308,24.2476952 62.8671308,24.7865905 L62.4093292,24.7865905 C61.8888377,24.7865905 61.3947419,24.8201143 60.926217,24.8871619 C60.4576921,24.9550476 60.0444334,25.0715429 59.6880905,25.2366476 C59.3317476,25.4025905 59.0463434,25.6246857 58.8327026,25.9046095 C58.618237,26.1836952 58.5110042,26.5356952 58.5110042,26.9606095 C58.5110042,27.3846857 58.5877169,27.7366857 58.7403174,28.0166095 C58.8937429,28.2956952 59.0818127,28.5186286 59.3061767,28.6845714 C59.5305408,28.8496762 59.7697524,28.9661714 60.0246365,29.0340571 C60.2795207,29.1011048 60.5137831,29.1346286 60.7274239,29.1346286 C61.3081308,29.1346286 61.7717064,29.0416 62.1181509,28.8547048 C62.4645954,28.6686476 62.7145303,28.4775619 62.8671308,28.2806095 L62.9438435,28.2806095 L63.4791827,28.979581 L64.2430102,28.979581 Z M66.1839241,28.979581 L67.5598035,28.979581 L67.5598035,23.2336 C67.712404,22.995581 67.9161463,22.8061714 68.1710305,22.6670476 C68.4259146,22.5270857 68.7063696,22.4566857 69.0115707,22.4566857 C69.2763533,22.4566857 69.5188644,22.4952381 69.7374543,22.573181 C69.9568692,22.6511238 70.1218427,22.767619 70.2348496,22.9226667 L70.8460766,22.4566857 C70.7644147,22.3016381 70.6827528,22.1667048 70.6010909,22.0535619 C70.519429,21.939581 70.4229194,21.8406857 70.3107374,21.7585524 C70.1985554,21.6747429 70.0558533,21.6160762 69.8826311,21.5792 C69.7094088,21.5431619 69.5469099,21.5247238 69.3934845,21.5247238 C68.9356829,21.5247238 68.5529442,21.6185905 68.2477432,21.8046476 C67.9417172,21.9907048 67.712404,22.1826286 67.5598035,22.379581 L67.4830908,22.379581 C67.4014289,22.1415619 67.2612013,21.9655619 67.0632331,21.8507429 C66.8644399,21.7376 66.570787,21.6806095 66.1839241,21.6806095 L64.96147,21.6806095 L64.96147,21.9907048 L65.1140706,21.9907048 C65.572697,21.9907048 65.8655251,22.133181 65.9933796,22.4181333 C66.1204092,22.7030857 66.1839241,23.0777143 66.1839241,23.5436952 L66.1839241,28.979581 Z M72.1138983,27.1156571 C72.1138983,27.8196571 72.284646,28.3325714 72.6261412,28.6535619 C72.9676365,28.9737143 73.4081158,29.1346286 73.9484042,29.1346286 C74.2131868,29.1346286 74.4474492,29.1136762 74.6511915,29.0726095 C74.8549339,29.0307048 75.0339302,28.979581 75.1865307,28.9175619 C75.3391312,28.8547048 75.4694603,28.7876571 75.5758683,28.715581 C75.6831011,28.6426667 75.777136,28.575619 75.8587979,28.5136 L75.7061974,28.2026667 C75.5535969,28.2856381 75.390273,28.3585524 75.2170508,28.4205714 C75.0438286,28.4825905 74.8244138,28.5136 74.5596312,28.5136 C73.8461206,28.5136 73.4897777,28.047619 73.4897777,27.1156571 L73.4897777,22.3016381 L75.3242836,22.3016381 L75.3242836,21.6806095 L73.4897777,21.6806095 L73.4897777,19.3507048 L72.8785507,19.3507048 L72.1138983,20.2826667 L72.1138983,21.6806095 L71.0440449,21.6806095 L71.0440449,22.3016381 L72.1138983,22.3016381 L72.1138983,27.1156571 Z M76.9138038,28.979581 L78.2888583,28.979581 L78.2888583,23.0467048 C78.4827022,22.8296381 78.7095409,22.6377143 78.9693742,22.4726095 C79.2292076,22.3066667 79.5121372,22.2236952 79.8173383,22.2236952 C80.0318039,22.2236952 80.2380208,22.2605714 80.436814,22.3326476 C80.6356071,22.4055619 80.8137785,22.5245714 80.9713283,22.6896762 C81.1297029,22.855619 81.2567325,23.0726857 81.3540669,23.3417143 C81.4505764,23.611581 81.4992436,23.9376 81.4992436,24.3206095 L81.4992436,28.979581 L82.8742982,28.979581 L82.8742982,24.3206095 C82.8742982,23.7616 82.8008849,23.3006476 82.6532336,22.9385905 C82.5055823,22.5756952 82.3092638,22.2882286 82.064278,22.0761905 C81.8201172,21.8641524 81.5421367,21.7191619 81.2311616,21.641219 C80.9201865,21.5641143 80.6026124,21.5247238 80.2759647,21.5247238 C79.8173383,21.5247238 79.4205769,21.605181 79.0840308,21.7660952 C78.7474848,21.9261714 78.4827022,22.1055238 78.2888583,22.3016381 L78.2129705,22.3016381 C78.1313086,22.1055238 77.9910811,21.9521524 77.7922879,21.8432 C77.5934948,21.7350857 77.3006668,21.6806095 76.9138038,21.6806095 L75.5379244,21.6806095 L75.5379244,21.9907048 L75.8439503,21.9907048 C76.3025768,21.9907048 76.5954048,22.133181 76.7224345,22.4181333 C76.8494641,22.7030857 76.9138038,23.0777143 76.9138038,23.5436952 L76.9138038,28.979581 Z M90.3946175,24.9416381 C90.3946175,23.8445714 90.1446825,23.0006095 89.6456375,22.4097524 C89.1465926,21.8197333 88.3769909,21.5247238 87.3376576,21.5247238 C86.8584094,21.5247238 86.430303,21.6261333 86.0533385,21.8281143 C85.6763739,22.0300952 85.3555004,22.3016381 85.0907178,22.643581 C84.8259353,22.9846857 84.6246675,23.3861333 84.4869146,23.8470857 C84.3491617,24.3080381 84.2806977,24.8016762 84.2806977,25.3296762 C84.2806977,25.8576762 84.3466871,26.3521524 84.4794908,26.8131048 C84.6114697,27.2740571 84.8127374,27.6746667 85.083294,28.0166095 C85.3530258,28.3585524 85.6870972,28.6300952 86.0846835,28.8312381 C86.4814448,29.0340571 86.9499697,29.1346286 87.4902581,29.1346286 C88.070965,29.1346286 88.5881571,29.0105905 89.0418344,28.7616762 C89.4955116,28.5136 89.8947476,28.0945524 90.2420169,27.5045333 L89.935991,27.2715429 C89.6712084,27.6646095 89.3726063,27.9696762 89.0418344,28.187581 C88.7102375,28.4046476 88.295329,28.5136 87.796284,28.5136 C87.4696364,28.5136 87.179283,28.4415238 86.9252237,28.2956952 C86.6703396,28.1507048 86.4533993,27.9462095 86.2752279,27.6822095 C86.0970565,27.4182095 85.9617782,27.1056 85.8702178,26.7427048 C85.7786575,26.3806476 85.7324649,25.987581 85.7324649,25.5626667 L90.3640974,25.5626667 L90.3946175,24.9416381 Z M85.7324649,24.9416381 C85.7324649,24.5376762 85.7737083,24.1655619 85.8553702,23.823619 C85.9362073,23.4816762 86.0483893,23.1866667 86.1910914,22.9385905 C86.3337935,22.6896762 86.5020665,22.4952381 86.6959105,22.3561143 C86.8889295,22.2161524 87.1033951,22.1457524 87.3376576,22.1457524 C87.877946,22.1457524 88.2796566,22.3871238 88.545264,22.8681905 C88.8100465,23.3492571 88.9428502,24.0406857 88.9428502,24.9416381 L85.7324649,24.9416381 Z M91.9684651,28.979581 L93.3443446,28.979581 L93.3443446,23.2336 C93.4969451,22.995581 93.7006874,22.8061714 93.9555716,22.6670476 C94.2104557,22.5270857 94.4909107,22.4566857 94.7961118,22.4566857 C95.0608943,22.4566857 95.3034055,22.4952381 95.5228203,22.573181 C95.7414102,22.6511238 95.9072087,22.767619 96.0193907,22.9226667 L96.6306177,22.4566857 C96.5489558,22.3016381 96.4672939,22.1667048 96.385632,22.0535619 C96.3039701,21.939581 96.2074605,21.8406857 96.0952785,21.7585524 C95.9830965,21.6747429 95.8403944,21.6160762 95.667997,21.5792 C95.4939499,21.5431619 95.331451,21.5247238 95.1788504,21.5247238 C94.720224,21.5247238 94.3374853,21.6185905 94.0322843,21.8046476 C93.7262583,21.9907048 93.4969451,22.1826286 93.3443446,22.379581 L93.2676319,22.379581 C93.1859699,22.1415619 93.0465673,21.9655619 92.8477742,21.8507429 C92.648981,21.7376 92.356153,21.6806095 91.9684651,21.6806095 L90.7460111,21.6806095 L90.7460111,21.9907048 L90.8986117,21.9907048 C91.3572381,21.9907048 91.6500662,22.133181 91.7779207,22.4181333 C91.9049503,22.7030857 91.9684651,23.0777143 91.9684651,23.5436952 L91.9684651,28.979581 Z M102.178678,25.8266667 C101.842132,25.5056762 101.348036,25.2106667 100.696391,24.9416381 L99.7791379,24.5536 C99.3914501,24.3876571 99.0911982,24.1940571 98.8775574,23.9711238 C98.6630918,23.7490286 98.555859,23.5026286 98.555859,23.2336 C98.555859,22.9226667 98.6861881,22.6645333 98.9460215,22.4566857 C99.2058548,22.2496762 99.585294,22.1457524 100.084339,22.1457524 C100.696391,22.1457524 101.17234,22.291581 101.513835,22.5807238 C101.85533,22.8707048 102.066496,23.2696381 102.148158,23.7766857 L102.454184,23.7766857 C102.454184,23.383619 102.438512,23.0626286 102.407991,22.8137143 C102.377471,22.5656381 102.265289,22.3427048 102.071445,22.1457524 C101.877601,21.9496381 101.592197,21.7962667 101.216058,21.6881524 C100.838268,21.5792 100.359845,21.5247238 99.7791379,21.5247238 C99.4120717,21.5247238 99.0755257,21.5691429 98.7703246,21.6571429 C98.4642987,21.7451429 98.1995161,21.8742095 97.9751521,22.045181 C97.7507881,22.2161524 97.5750913,22.4256762 97.4480616,22.6745905 C97.3202071,22.9226667 97.2566923,23.2126476 97.2566923,23.5436952 C97.2566923,24.051581 97.4175415,24.4681143 97.7384151,24.7941333 C98.0592886,25.1201524 98.5104913,25.4025905 99.0911982,25.6406095 L100.008451,26.0286476 C100.467078,26.2256 100.811047,26.4300952 101.040361,26.6421333 C101.268849,26.8541714 101.383506,27.1156571 101.383506,27.4265905 C101.383506,27.7366857 101.249052,27.9956571 100.978496,28.2026667 C100.708764,28.4105143 100.283132,28.5136 99.7024252,28.5136 C99.0499548,28.5136 98.5509098,28.3686095 98.2044654,28.0786286 C97.8580209,27.7886476 97.6443801,27.3905524 97.5627182,26.8826667 L97.2566923,26.8826667 C97.2566923,27.2765714 97.2723648,27.5967238 97.3028849,27.8456381 C97.333405,28.0945524 97.445587,28.3166476 97.6394309,28.5136 C97.83245,28.7097143 98.1228034,28.8630857 98.5104913,28.9712 C98.8973543,29.0801524 99.3972241,29.1346286 100.008451,29.1346286 C100.385416,29.1346286 100.739284,29.0902095 101.070881,29.0030476 C101.401653,28.9150476 101.684582,28.7851429 101.918845,28.6141714 C102.153107,28.4440381 102.339527,28.2336762 102.476455,27.9856 C102.614208,27.7366857 102.682672,27.4475429 102.682672,27.1156571 C102.682672,26.5776 102.515224,26.1476571 102.178678,25.8266667 L102.178678,25.8266667 Z" id="Fill-6" fill="#FFFFFF"></path>
            </g>
        </g>
    </g>
</svg>