<?xml version="1.0" encoding="UTF-8" standalone="no"?>
<svg width="187px" height="32px" viewBox="0 0 248 42" version="1.1" xmlns="http://www.w3.org/2000/svg" xmlns:xlink="http://www.w3.org/1999/xlink">
    <!-- Generator: Sketch 39.1 (31720) - http://www.bohemiancoding.com/sketch -->
    <title>Group 6</title>
    <desc>Created with Sketch.</desc>
    <defs>
        <polygon id="path-1" points="199.540053 22.63438 199.540053 0.10033 0.636951542 0.10033 0.636951542 22.63438 199.540053 22.63438"></polygon>
    </defs>
    <g id="Page-1" stroke="none" stroke-width="1" fill="none" fill-rule="evenodd">
        <g id="investment-practice" transform="translate(-110.000000, -50.000000)">
            <g id="Group-6" transform="translate(110.000000, 50.000000)">
                <path d="M31.3299383,9.80343 L31.3299383,9.80343 C32.5240529,9.48113 33.5881586,9.09833 34.4140969,8.69133 C35.2214626,8.29863 35.7283877,7.95103 35.9851278,7.61883 C36.1042115,7.47143 36.105304,7.46373 36.0878238,7.24483 C36.0681586,6.97863 36.0288282,6.89723 35.8420088,6.74213 C35.6366167,6.57163 35.5863612,6.54853 35.4312247,6.57273 C34.7331101,6.68163 33.6187489,7.35923 32.4005991,8.41743 C31.8980441,8.84643 30.8000705,9.94423 30.8885639,9.92003 C30.9235242,9.91343 31.1212687,9.85403 31.3299383,9.80343 M6.44909251,9.34913 L6.44909251,9.34913 C5.22438767,8.13363 4.15372687,7.30203 3.22290749,6.85103 C2.8765815,6.68163 2.39915419,6.54193 2.27460793,6.57163 C2.23418502,6.58043 2.11728634,6.66953 2.01459031,6.76303 C1.81029075,6.95113 1.76440529,7.05783 1.76440529,7.34383 C1.76440529,7.47803 1.77970044,7.50003 2.01459031,7.74423 C2.55210573,8.29533 3.58234361,8.83873 5.03210573,9.33703 C5.59037885,9.53063 6.87517181,9.91343 7.02266079,9.93103 C7.0335859,9.93103 6.7757533,9.66593 6.44909251,9.34913 M20.8899031,11.22573 L20.8899031,11.22573 C23.8090925,11.11903 26.3218678,10.85063 28.723207,10.39523 L29.2563524,10.29293 L29.558978,9.90903 C30.9475595,8.15673 32.4311894,6.65413 33.5149604,5.91383 L33.7695154,5.73453 L33.5029427,5.64653 C33.0954361,5.51783 32.1405815,5.28463 31.4949075,5.15373 C29.2060969,4.69063 26.7665198,4.43103 22.9765991,4.23523 C21.8950132,4.18133 17.3665551,4.15823 16.0031013,4.20333 C11.9520705,4.33203 8.86572687,4.64223 6.21529515,5.18453 C5.64500441,5.30113 4.71855507,5.53543 4.31432599,5.66303 L4.08926872,5.73453 L4.32415859,5.89513 C5.4363348,6.66953 6.79104846,8.03463 8.22988546,9.82653 C8.43964758,10.08613 8.61444934,10.29623 8.62100441,10.29623 C8.62646696,10.29623 8.98918062,10.36443 9.4338326,10.44473 C12.8544846,11.07613 17.0999824,11.36653 20.8899031,11.22573 M19.1615507,27.46173 L19.1615507,27.46173 C21.2460617,22.64593 24.9780793,16.13613 28.1649339,11.74603 C28.3331806,11.51173 28.4631894,11.31153 28.4577269,11.30163 C28.4500793,11.29503 28.1583789,11.32253 27.8054978,11.35883 C22.6477533,11.91653 15.7212335,11.92863 10.3996123,11.39073 C9.85881938,11.33573 9.41307489,11.29833 9.39996476,11.30493 C9.3945022,11.31373 9.56384141,11.56233 9.78015859,11.85823 C11.9619031,14.87883 14.433163,18.93563 16.4881762,22.87033 C17.2496564,24.32013 18.4612511,26.85013 18.8316123,27.76093 C18.8764053,27.86653 18.9168282,27.95013 18.9266608,27.95013 C18.9408634,27.95013 19.0402819,27.73343 19.1615507,27.46173 M21.7464317,34.66783 L21.7464317,34.66783 C23.3393128,33.04313 24.8884934,31.03893 26.8113128,28.11623 C30.8579736,21.98153 34.4643524,14.79303 35.6530044,10.49533 C35.7972159,9.97943 35.910837,9.49873 35.8889868,9.48223 C35.8824317,9.47343 35.7873833,9.51083 35.6748546,9.57133 C34.6140264,10.11033 32.6409515,10.65043 30.4941674,10.99583 C30.1325463,11.05523 29.8004229,11.11023 29.76437,11.12893 C29.6780617,11.16413 29.1034009,11.83403 28.4009163,12.71843 C25.296,16.63223 22.4434537,21.49093 20.5140793,26.16263 C20.0552247,27.28463 19.4259383,28.99403 19.4259383,29.12823 C19.4259383,29.16233 19.5253568,29.44063 19.6422555,29.75083 C20.1273304,31.02463 20.5785374,32.48213 20.7904846,33.47653 C20.9204934,34.08703 21.033022,34.83283 21.033022,35.08913 C21.033022,35.24643 21.0515947,35.30473 21.1018502,35.30473 C21.1094978,35.30473 21.4033833,35.01653 21.7464317,34.66783 M16.8366872,34.94063 L16.8366872,34.94063 C16.9164405,33.77463 17.458326,31.75173 18.2198062,29.75083 C18.3421674,29.44063 18.4372159,29.16233 18.4372159,29.13373 C18.4372159,29.06553 18.1848458,28.32963 17.907348,27.59153 C16.1866432,23.00453 13.4094802,17.95883 10.3449868,13.86023 C9.58787665,12.84713 8.22770044,11.18613 8.11080176,11.12453 C8.08130396,11.11023 7.80271366,11.06293 7.48479295,11.01233 C5.40902203,10.69663 3.24038767,10.10263 2.17846696,9.56253 C2.0735859,9.51083 1.97744493,9.47343 1.96979736,9.48553 C1.96105727,9.49103 1.9938326,9.65823 2.03862555,9.84853 C2.61328634,12.25643 4.12859912,15.91943 6.13772687,19.75183 C9.08204405,25.37393 12.5748018,30.74413 15.2591013,33.76473 C15.775859,34.34223 16.7744141,35.33993 16.7951718,35.29373 C16.8060969,35.27173 16.8257621,35.11333 16.8366872,34.94063 M19.2107137,36.61593 L19.2107137,36.61593 C19.3778678,36.55543 19.4150132,36.52463 19.4751013,36.41023 C19.84437,35.64133 19.7198238,33.75593 19.1418855,31.47893 C19.0566696,31.15003 18.9823789,30.84863 18.9769163,30.80573 C18.9648987,30.76613 18.9474185,30.73313 18.9332159,30.73313 C18.8851454,30.73313 18.5497445,32.12683 18.3957004,32.98593 C18.2361938,33.84503 18.1946784,34.25643 18.1946784,35.00553 C18.1903084,35.77223 18.2351013,36.08023 18.3793128,36.39483 C18.4448634,36.53013 18.4754537,36.55323 18.6524405,36.61593 C18.7595066,36.65553 18.8851454,36.68853 18.9299383,36.68853 C18.9769163,36.68853 19.1014626,36.65553 19.2107137,36.61593 M18.4852863,38.31323 C15.9714185,37.84463 11.8231542,33.80873 8.00155066,28.11623 C3.83799119,21.91223 0.698114537,14.59943 0.0622731278,9.62083 C-0.0207577093,8.95203 -0.0207577093,7.62983 0.0622731278,7.16893 C0.175894273,6.55623 0.383471366,6.05903 0.663154185,5.73233 C1.05536564,5.27143 1.85071366,4.70823 2.66463436,4.30453 C6.79104846,2.27613 14.8592423,1.17833 22.3516828,1.62493 C27.6601938,1.94283 32.3121057,2.90093 35.1067489,4.25943 C36.5466784,4.95463 37.3529515,5.68063 37.646837,6.54523 C37.8128987,7.02593 37.8598767,7.41863 37.8598767,8.29533 C37.8598767,8.77163 37.843489,9.27213 37.8150837,9.47013 C37.2404229,14.19793 34.4501498,20.96183 30.5706432,27.02723 C27.2384846,32.25223 23.2879648,36.54003 20.6266079,37.85343 C19.7482291,38.28573 19.10037,38.42433 18.4852863,38.31323" id="Fill-1" fill="#5F1358"></path>
                <g id="Group-5" transform="translate(48.000000, 0.000000)">
                    <mask id="mask-2" fill="white">
                        <use xlink:href="#path-1"></use>
                    </mask>
                    <g id="Clip-4"></g>
                    <path d="M3.10821145,18.34878 L5.57947137,18.34878 L5.57947137,7.78658 C5.92688987,7.39938 6.33548899,7.05838 6.80199119,6.76358 C7.26849339,6.46878 7.77651101,6.32138 8.32604405,6.32138 C8.71060793,6.32138 9.08096916,6.38628 9.43822026,6.51498 C9.79547137,6.64368 10.1155771,6.85598 10.39963,7.15078 C10.6825903,7.44558 10.9120176,7.83278 11.0857269,8.31128 C11.2594361,8.79198 11.346837,9.37168 11.346837,10.05368 L11.346837,18.34878 L13.8180969,18.34878 L13.8180969,10.05368 C13.8180969,9.05818 13.6848106,8.23868 13.4204229,7.59298 C13.1549427,6.94838 12.8020617,6.43578 12.3628722,6.05848 C11.9236828,5.68008 11.4244053,5.42268 10.8661322,5.28408 C10.307859,5.14658 9.73538326,5.07728 9.14979736,5.07728 C8.32604405,5.07728 7.61154185,5.21918 7.00738326,5.50518 C6.40322467,5.79118 5.92688987,6.10908 5.57947137,6.45888 L5.44290749,6.45888 C5.2954185,6.10908 5.04414097,5.83738 4.68688987,5.64378 C4.33073128,5.45018 3.80414097,5.35338 3.10821145,5.35338 L0.636951542,5.35338 L0.636951542,5.90558 L1.18539207,5.90558 C2.01023789,5.90558 2.53573568,6.15968 2.765163,6.66678 C2.9934978,7.17388 3.10821145,7.84158 3.10821145,8.67098 L3.10821145,18.34878 Z M27.3291806,11.15918 C27.3291806,9.20558 26.8801586,7.70408 25.983207,6.65248 C25.0862555,5.60198 23.7042291,5.07728 21.8371278,5.07728 C20.9762291,5.07728 20.2071013,5.25658 19.5297445,5.61628 C18.8523877,5.97488 18.2755419,6.45888 17.8002996,7.06718 C17.3239648,7.67548 16.9623436,8.39048 16.7154361,9.20998 C16.4685286,10.03058 16.3450749,10.91058 16.3450749,11.85108 C16.3450749,12.79158 16.4630661,13.67158 16.7012335,14.49218 C16.9394009,15.31168 17.301022,16.02668 17.7860969,16.63388 C18.2711718,17.24328 18.8709604,17.72728 19.5854626,18.08588 C20.2988722,18.44558 21.1411982,18.62488 22.111348,18.62488 C23.154696,18.62488 24.0844229,18.40378 24.8983436,17.96158 C25.7133568,17.51938 26.4322291,16.77248 27.0549604,15.72198 L26.5054273,15.30728 C26.0290925,16.00798 25.4937621,16.55138 24.8983436,16.93858 C24.3040176,17.32578 23.5578326,17.51938 22.6608811,17.51938 C22.0742026,17.51938 21.5530749,17.39068 21.0953128,17.13218 C20.6375507,16.87478 20.2486167,16.51068 19.928511,16.03988 C19.6073128,15.57018 19.3658678,15.01248 19.2008987,14.36678 C19.0359295,13.72218 18.9528987,13.02148 18.9528987,12.26578 L27.2745551,12.26578 L27.3291806,11.15918 Z M18.9528987,11.15918 C18.9528987,10.44088 19.0260969,9.77758 19.1735859,9.16928 C19.3188899,8.56098 19.5210044,8.03518 19.7777445,7.59298 C20.0333921,7.15078 20.3360176,6.80428 20.6834361,6.55568 C21.0308546,6.30708 21.4154185,6.18278 21.8371278,6.18278 C22.8072775,6.18278 23.5305198,6.61178 24.0068546,7.46868 C24.4820969,8.32558 24.7202643,9.55648 24.7202643,11.15918 L18.9528987,11.15918 Z M32.4093568,3.41738 C32.4093568,2.73648 32.3722115,2.17878 32.3001057,1.74538 C32.225815,1.31198 32.0936211,0.97098 31.9013392,0.72238 C31.7090573,0.47378 31.4523172,0.30768 31.1322115,0.22408 C30.8121057,0.14158 30.4133392,0.09978 29.9380969,0.09978 L27.466837,0.09978 L27.466837,0.65308 L28.0152775,0.65308 C28.8390308,0.65308 29.3656211,0.90608 29.5950485,1.41318 C29.8233833,1.92028 29.9380969,2.58798 29.9380969,3.41738 L29.9380969,18.34878 L32.4093568,18.34878 L32.4093568,11.98968 L35.70437,16.41388 C36.3271013,17.24328 36.9727753,17.81968 37.6413921,18.14198 C38.3089163,18.46318 38.9906432,18.62488 39.6865727,18.62488 C39.9618855,18.62488 40.2219031,18.59738 40.4699031,18.54238 C40.7168106,18.48628 40.9134626,18.42248 41.059859,18.34878 L41.059859,17.79548 C40.510326,17.70418 40.0023084,17.48418 39.5358062,17.13438 C39.069304,16.78678 38.5700264,16.26318 38.0390661,15.56578 L34.6063965,11.15918 L37.6271894,7.28828 C37.9746079,6.86478 38.3777445,6.55128 38.8355066,6.34888 C39.2932687,6.14648 39.7597709,6.04418 40.2361057,6.04418 L40.2361057,5.35338 L39.4123524,5.35338 C38.5154009,5.35338 37.8008987,5.51948 37.2699383,5.85058 C36.738978,6.18278 36.2626432,6.61618 35.8420264,7.15078 L32.4093568,11.57498 L32.4093568,3.41738 Z M43.2284934,15.03118 C43.2284934,16.28518 43.535489,17.19708 44.1494802,17.76798 C44.7623789,18.33998 45.5533568,18.62488 46.5245991,18.62488 C46.9998414,18.62488 47.4215507,18.58858 47.7875419,18.51488 C48.153533,18.44008 48.4747313,18.34878 48.7489515,18.23768 C49.0231718,18.12768 49.2569692,18.00778 49.4492511,17.87908 C49.641533,17.75038 49.8108722,17.63048 49.9572687,17.51938 L49.6830485,16.96608 C49.4077357,17.11348 49.1149427,17.24328 48.8035771,17.35328 C48.4922115,17.46438 48.0989075,17.51938 47.6225727,17.51938 C46.3410573,17.51938 45.7008458,16.68998 45.7008458,15.03118 L45.7008458,6.45888 L48.995859,6.45888 L48.995859,5.35338 L45.7008458,5.35338 L45.7008458,1.20638 L44.6017797,1.20638 L43.2284934,2.86518 L43.2284934,5.35338 L41.3067665,5.35338 L41.3067665,6.45888 L43.2284934,6.45888 L43.2284934,15.03118 Z M59.9253392,14.07638 C59.76037,14.76828 59.5276652,15.36778 59.2250396,15.87378 C58.9235066,16.38088 58.5618855,16.78238 58.1401762,17.07718 C57.7195595,17.37198 57.2519648,17.51938 56.7395771,17.51938 C56.2271894,17.51938 55.7606872,17.37198 55.3400705,17.07718 C54.9183612,16.78238 54.5567401,16.38088 54.255207,15.87378 C53.9525815,15.36778 53.7187841,14.76828 53.5549075,14.07638 C53.3899383,13.38558 53.3069075,12.64308 53.3069075,11.85108 C53.3069075,11.05908 53.3899383,10.31658 53.5549075,9.62468 C53.7187841,8.93388 53.9525815,8.33438 54.255207,7.82838 C54.5567401,7.32128 54.9183612,6.91978 55.3400705,6.62498 C55.7606872,6.33018 56.2271894,6.18278 56.7395771,6.18278 C57.2519648,6.18278 57.7195595,6.33018 58.1401762,6.62498 C58.5618855,6.91978 58.9235066,7.32128 59.2250396,7.82838 C59.5276652,8.33438 59.76037,8.93388 59.9253392,9.62468 C60.0903084,10.31658 60.1733392,11.05908 60.1733392,11.85108 C60.1733392,12.64308 60.0903084,13.38558 59.9253392,14.07638 L59.9253392,14.07638 Z M51.0967577,14.49218 C51.3622379,15.31168 51.7555419,16.02668 52.2777621,16.63388 C52.7988899,17.24328 53.4314537,17.72728 54.1721762,18.08588 C54.9139912,18.44558 55.7694273,18.62488 56.7395771,18.62488 C57.6922467,18.62488 58.5433128,18.44558 59.2938678,18.08588 C60.0444229,17.72728 60.6813568,17.24328 61.2024846,16.63388 C61.7247048,16.02668 62.1180088,15.31168 62.383489,14.49218 C62.6489692,13.67158 62.781163,12.79158 62.781163,11.85108 C62.781163,10.91058 62.6489692,10.03058 62.383489,9.20998 C62.1180088,8.39048 61.7247048,7.67548 61.2024846,7.06718 C60.6813568,6.45888 60.0444229,5.97488 59.2938678,5.61628 C58.5433128,5.25658 57.6922467,5.07728 56.7395771,5.07728 C55.7694273,5.07728 54.9139912,5.25658 54.1721762,5.61628 C53.4314537,5.97488 52.7988899,6.45888 52.2777621,7.06718 C51.7555419,7.67548 51.3622379,8.39048 51.0967577,9.20998 C50.8312775,10.03058 50.6979912,10.91058 50.6979912,11.85108 C50.6979912,12.79158 50.8312775,13.67158 51.0967577,14.49218 L51.0967577,14.49218 Z M65.6653921,18.34878 L68.136652,18.34878 L68.136652,8.11878 C68.4108722,7.69418 68.7768634,7.35758 69.2357181,7.10898 C69.6923877,6.86038 70.1960352,6.73608 70.7455683,6.73608 C71.2219031,6.73608 71.65563,6.80428 72.0500264,6.94288 C72.4433304,7.08148 72.7404934,7.28828 72.9426079,7.56548 L74.0405815,6.73608 C73.894185,6.45888 73.7477885,6.22018 73.6013921,6.01668 C73.4549956,5.81428 73.2812863,5.63938 73.0802643,5.49198 C72.8781498,5.34458 72.6225022,5.23898 72.3111366,5.17298 C71.9997709,5.10918 71.706978,5.07728 71.4316652,5.07728 C70.6079119,5.07728 69.921815,5.24228 69.3722819,5.57448 C68.8227489,5.90558 68.4108722,6.24768 68.136652,6.59748 L67.9989956,6.59748 C67.8525991,6.17398 67.6013216,5.86048 67.2440705,5.65698 C66.8868194,5.45458 66.3602291,5.35338 65.6653921,5.35338 L63.4683524,5.35338 L63.4683524,5.90558 L63.7425727,5.90558 C64.566326,5.90558 65.0929163,6.15968 65.3223436,6.66678 C65.5506784,7.17388 65.6653921,7.84158 65.6653921,8.67098 L65.6653921,18.34878 Z M84.0370573,14.07638 C83.8720881,14.76828 83.6393833,15.36778 83.3367577,15.87378 C83.0352247,16.38088 82.672511,16.78238 82.2518943,17.07718 C81.830185,17.37198 81.3636828,17.51938 80.8512952,17.51938 C80.3389075,17.51938 79.8724053,17.37198 79.450696,17.07718 C79.0300793,16.78238 78.6684581,16.38088 78.3658326,15.87378 C78.0642996,15.36778 77.8305022,14.76828 77.665533,14.07638 C77.5016564,13.38558 77.4186256,12.64308 77.4186256,11.85108 C77.4186256,11.05908 77.5016564,10.31658 77.665533,9.62468 C77.8305022,8.93388 78.0642996,8.33438 78.3658326,7.82838 C78.6684581,7.32128 79.0300793,6.91978 79.450696,6.62498 C79.8724053,6.33018 80.3389075,6.18278 80.8512952,6.18278 C81.3636828,6.18278 81.830185,6.33018 82.2518943,6.62498 C82.672511,6.91978 83.0352247,7.32128 83.3367577,7.82838 C83.6393833,8.33438 83.8720881,8.93388 84.0370573,9.62468 C84.2020264,10.31658 84.2839648,11.05908 84.2839648,11.85108 C84.2839648,12.64308 84.2020264,13.38558 84.0370573,14.07638 L84.0370573,14.07638 Z M75.2084758,14.49218 C75.4728634,15.31168 75.8672599,16.02668 76.3894802,16.63388 C76.9106079,17.24328 77.5420793,17.72728 78.2838943,18.08588 C79.0257093,18.44558 79.8811454,18.62488 80.8512952,18.62488 C81.8028722,18.62488 82.6550308,18.44558 83.4055859,18.08588 C84.156141,17.72728 84.7919824,17.24328 85.3142026,16.63388 C85.8353304,16.02668 86.2297269,15.31168 86.495207,14.49218 C86.7595947,13.67158 86.8928811,12.79158 86.8928811,11.85108 C86.8928811,10.91058 86.7595947,10.03058 86.495207,9.20998 C86.2297269,8.39048 85.8353304,7.67548 85.3142026,7.06718 C84.7919824,6.45888 84.156141,5.97488 83.4055859,5.61628 C82.6550308,5.25658 81.8028722,5.07728 80.8512952,5.07728 C79.8811454,5.07728 79.0257093,5.25658 78.2838943,5.61628 C77.5420793,5.97488 76.9106079,6.45888 76.3894802,7.06718 C75.8672599,7.67548 75.4728634,8.39048 75.2084758,9.20998 C74.9429956,10.03058 74.8097093,10.91058 74.8097093,11.85108 C74.8097093,12.79158 74.9429956,13.67158 75.2084758,14.49218 L75.2084758,14.49218 Z M92.6875595,8.53348 C92.3761938,7.81408 92.0375154,7.22888 91.6715242,6.77678 C91.305533,6.32578 90.9209692,5.97488 90.5189251,5.72628 C90.1157885,5.47768 89.6984493,5.30828 89.2690925,5.21478 C88.8386432,5.12348 88.4223965,5.07728 88.0192599,5.07728 C87.8914361,5.07728 87.7220969,5.08608 87.5112423,5.10368 C87.3003877,5.12348 87.1594537,5.13228 87.0862555,5.13228 L87.0862555,5.68558 C87.4151013,5.70318 87.7078943,5.76808 87.9646344,5.87918 C88.2202819,5.98918 88.4584493,6.15528 88.6780441,6.37638 C88.8987313,6.59748 89.1084934,6.88348 89.3106079,7.23328 C89.51163,7.58418 89.7224846,8.01648 89.9420793,8.53348 L94.1985022,18.62488 L94.7480352,18.62488 L100.377744,5.35338 L99.0044581,5.35338 L95.1599119,14.47788 L92.6875595,8.53348 Z M101.228811,22.63438 C102.19896,22.08218 102.945145,21.38588 103.466273,20.54768 C103.988493,19.70838 104.249604,18.69858 104.249604,17.51938 C104.249604,16.89238 104.089004,16.41388 103.768899,16.08168 C103.4477,15.74948 103.013974,15.58338 102.464441,15.58338 C101.988106,15.58338 101.594802,15.74068 101.283436,16.05418 C100.97207,16.36768 100.816934,16.76368 100.816934,17.24328 C100.816934,17.66678 100.96333,18.02648 101.256123,18.32128 C101.548916,18.61608 101.906167,18.76348 102.326784,18.76348 L103.150537,18.48628 C103.150537,19.31678 102.958256,20.02628 102.573692,20.61588 C102.19022,21.20548 101.649427,21.74008 100.953498,22.21968 L101.228811,22.63438 Z M121.74289,12.73548 C121.138731,12.16458 120.25052,11.63878 119.078256,11.15918 L117.430749,10.46838 C116.734819,10.17358 116.195119,9.82818 115.810555,9.43218 C115.425991,9.03508 115.233709,8.59838 115.233709,8.11878 C115.233709,7.56548 115.467507,7.10458 115.934009,6.73608 C116.401604,6.36758 117.08333,6.18278 117.980282,6.18278 C119.078256,6.18278 119.934784,6.44128 120.547683,6.95718 C121.160581,7.47308 121.540775,8.18258 121.687172,9.08568 L122.236705,9.08568 C122.236705,8.38608 122.209392,7.81408 122.154767,7.37188 C122.099048,6.92968 121.898026,6.53258 121.550608,6.18278 C121.202097,5.83298 120.689709,5.56128 120.012352,5.36768 C119.334996,5.17298 118.474097,5.07728 117.430749,5.07728 C116.771965,5.07728 116.167806,5.15538 115.618273,5.31158 C115.06874,5.46888 114.593498,5.69878 114.190361,6.00348 C113.787225,6.30708 113.471489,6.68108 113.243154,7.12218 C113.013727,7.56548 112.900106,8.08138 112.900106,8.67098 C112.900106,9.57408 113.188529,10.31658 113.765374,10.89738 C114.341128,11.47708 115.151771,11.97978 116.195119,12.40438 L117.842626,13.09518 C118.666379,13.44498 119.28474,13.81018 119.696617,14.18748 C120.108493,14.56588 120.314978,15.03118 120.314978,15.58338 C120.314978,16.13668 120.071348,16.59758 119.586273,16.96608 C119.101198,17.33568 118.337533,17.51938 117.294185,17.51938 C116.121921,17.51938 115.224969,17.26088 114.602238,16.74498 C113.979507,16.22908 113.594943,15.51958 113.448546,14.61538 L112.900106,14.61538 C112.900106,15.31718 112.927419,15.88808 112.982044,16.33028 C113.03667,16.77248 113.238784,17.16958 113.586203,17.51938 C113.933621,17.86918 114.455841,18.14198 115.151771,18.33448 C115.8477,18.52918 116.744652,18.62488 117.842626,18.62488 C118.519982,18.62488 119.155824,18.54678 119.751242,18.39058 C120.346661,18.23438 120.854678,18.00338 121.275295,17.69868 C121.697004,17.39508 122.031313,17.02108 122.27822,16.57888 C122.525128,16.13668 122.648581,15.62078 122.648581,15.03118 C122.648581,14.07198 122.347048,13.30748 121.74289,12.73548 L121.74289,12.73548 Z M132.15015,15.72198 C131.87593,16.14658 131.541621,16.52828 131.148317,16.86928 C130.753921,17.21028 130.21859,17.38078 129.541233,17.38078 C129.193815,17.38078 128.863877,17.33018 128.552511,17.22898 C128.241145,17.12778 127.966925,16.96608 127.728758,16.74498 C127.49059,16.52388 127.298308,16.24778 127.151912,15.91558 C127.005515,15.58338 126.932317,15.19618 126.932317,14.75398 C126.932317,13.92458 127.321251,13.25688 128.100211,12.74978 C128.878079,12.24268 129.95311,11.98968 131.326396,11.98968 L132.15015,11.98968 L132.15015,15.72198 Z M134.622502,18.34878 L134.622502,10.88308 C134.622502,9.64888 134.489216,8.64898 134.223736,7.88338 C133.958256,7.11888 133.601004,6.52818 133.153075,6.11348 C132.704053,5.69878 132.191665,5.42268 131.614819,5.28408 C131.037974,5.14658 130.438185,5.07728 129.816546,5.07728 C129.394837,5.07728 128.97859,5.09598 128.566714,5.13228 C128.154837,5.16968 127.765903,5.22468 127.399912,5.29838 C127.032828,5.37208 126.699612,5.47328 126.396987,5.60198 C126.095454,5.73178 125.861656,5.87918 125.696687,6.04418 C125.349269,6.39508 125.148247,6.77678 125.092529,7.19148 C125.037903,7.60618 125.01059,8.05388 125.01059,8.53348 L126.24622,8.53348 C126.447242,7.63038 126.808863,7.01218 127.331084,6.68108 C127.852211,6.34888 128.497885,6.18278 129.267013,6.18278 C129.669057,6.18278 130.049251,6.24768 130.406502,6.37638 C130.763753,6.50508 131.069656,6.74048 131.326396,7.08148 C131.583137,7.42248 131.784159,7.90208 131.930555,8.51918 C132.076952,9.13628 132.15015,9.92498 132.15015,10.88308 L131.326396,10.88308 C130.393392,10.88308 129.505181,10.94358 128.662855,11.06238 C127.820529,11.18338 127.078714,11.39018 126.438502,11.68498 C125.797198,11.97978 125.284811,12.37688 124.900247,12.87408 C124.515683,13.37238 124.323401,13.99828 124.323401,14.75398 C124.323401,15.50968 124.461057,16.13668 124.735278,16.63388 C125.01059,17.13218 125.349269,17.52818 125.752405,17.82298 C126.154449,18.11888 126.584899,18.32568 127.042661,18.44558 C127.500423,18.56548 127.92104,18.62488 128.305604,18.62488 C129.348952,18.62488 130.182537,18.45988 130.805269,18.12768 C131.426907,17.79548 131.87593,17.45558 132.15015,17.10468 L132.287806,17.10468 L133.249216,18.34878 L134.622502,18.34878 Z M141.103278,8.53348 C140.790819,7.81408 140.453233,7.22888 140.087242,6.77678 C139.720159,6.32578 139.335595,5.97488 138.933551,5.72628 C138.530414,5.47768 138.114167,5.30828 137.683718,5.21478 C137.253269,5.12348 136.837022,5.07728 136.433885,5.07728 C136.306062,5.07728 136.136722,5.08608 135.925868,5.10368 C135.716106,5.12348 135.574079,5.13228 135.500881,5.13228 L135.500881,5.68558 C135.829727,5.70318 136.12252,5.76808 136.37926,5.87918 C136.636,5.98918 136.874167,6.15528 137.093762,6.37638 C137.313357,6.59748 137.523119,6.88348 137.725233,7.23328 C137.926256,7.58418 138.13711,8.01648 138.356705,8.53348 L142.613128,18.62488 L143.162661,18.62488 L148.79237,5.35338 L147.419084,5.35338 L143.574537,14.47788 L141.103278,8.53348 Z M160.737885,11.15918 C160.737885,9.20558 160.288863,7.70408 159.391912,6.65248 C158.49496,5.60198 157.112934,5.07728 155.245833,5.07728 C154.384934,5.07728 153.615806,5.25658 152.938449,5.61628 C152.261093,5.97488 151.684247,6.45888 151.209004,7.06718 C150.73267,7.67548 150.371048,8.39048 150.124141,9.20998 C149.877233,10.03058 149.75378,10.91058 149.75378,11.85108 C149.75378,12.79158 149.871771,13.67158 150.109938,14.49218 C150.348106,15.31168 150.709727,16.02668 151.194802,16.63388 C151.679877,17.24328 152.279665,17.72728 152.994167,18.08588 C153.707577,18.44558 154.549903,18.62488 155.520053,18.62488 C156.563401,18.62488 157.493128,18.40378 158.307048,17.96158 C159.122062,17.51938 159.840934,16.77248 160.463665,15.72198 L159.914132,15.30728 C159.437797,16.00798 158.902467,16.55138 158.307048,16.93858 C157.712722,17.32578 156.966537,17.51938 156.069586,17.51938 C155.482907,17.51938 154.96178,17.39068 154.504018,17.13218 C154.046256,16.87478 153.657322,16.51068 153.337216,16.03988 C153.016018,15.57018 152.774573,15.01248 152.609604,14.36678 C152.444634,13.72218 152.361604,13.02148 152.361604,12.26578 L160.68326,12.26578 L160.737885,11.15918 Z M152.361604,11.15918 C152.361604,10.44088 152.434802,9.77758 152.582291,9.16928 C152.727595,8.56098 152.929709,8.03518 153.186449,7.59298 C153.442097,7.15078 153.744722,6.80428 154.092141,6.55568 C154.439559,6.30708 154.824123,6.18278 155.245833,6.18278 C156.215982,6.18278 156.939225,6.61178 157.415559,7.46868 C157.890802,8.32558 158.128969,9.55648 158.128969,11.15918 L152.361604,11.15918 Z M165.928405,3.41738 C165.928405,2.73648 165.89126,2.17878 165.818062,1.74538 C165.744863,1.31198 165.61267,0.97098 165.420388,0.72238 C165.228106,0.47378 164.971366,0.30768 164.65126,0.22408 C164.330062,0.14158 163.932388,0.09978 163.456053,0.09978 L160.984793,0.09978 L160.984793,0.65308 L161.534326,0.65308 C162.358079,0.65308 162.883577,0.90608 163.113004,1.41318 C163.341339,1.92028 163.456053,2.58798 163.456053,3.41738 L163.456053,18.34878 L165.928405,18.34878 L165.928405,3.41738 Z M172.32615,8.67098 C172.32615,7.99008 172.289004,7.43238 172.216899,6.99898 C172.142608,6.56558 172.010414,6.22458 171.818132,5.97488 C171.62585,5.72628 171.36911,5.56128 171.049004,5.47768 C170.728899,5.39518 170.330132,5.35338 169.85489,5.35338 L167.38363,5.35338 L167.38363,5.90558 L167.93207,5.90558 C168.755824,5.90558 169.282414,6.15968 169.511841,6.66678 C169.740176,7.17388 169.85489,7.84158 169.85489,8.67098 L169.85489,18.34878 L172.32615,18.34878 L172.32615,8.67098 Z M171.708881,1.20638 C171.406256,0.85548 171.044634,0.68058 170.624018,0.68058 C170.239454,0.68058 169.932458,0.79168 169.704123,1.01278 C169.474696,1.23278 169.359982,1.53748 169.359982,1.92468 C169.359982,2.40428 169.511841,2.81898 169.813374,3.16878 C170.116,3.51968 170.476529,3.69458 170.898238,3.69458 C171.282802,3.69458 171.588705,3.58348 171.818132,3.36238 C172.046467,3.14128 172.161181,2.83658 172.161181,2.44938 C172.161181,1.97088 172.010414,1.55618 171.708881,1.20638 L171.708881,1.20638 Z M185.891859,11.15918 C185.891859,9.20558 185.442837,7.70408 184.545885,6.65248 C183.648934,5.60198 182.266907,5.07728 180.399806,5.07728 C179.538907,5.07728 178.76978,5.25658 178.092423,5.61628 C177.415066,5.97488 176.83822,6.45888 176.362978,7.06718 C175.886643,7.67548 175.525022,8.39048 175.278115,9.20998 C175.031207,10.03058 174.907753,10.91058 174.907753,11.85108 C174.907753,12.79158 175.025744,13.67158 175.263912,14.49218 C175.502079,15.31168 175.8637,16.02668 176.348775,16.63388 C176.83385,17.24328 177.433639,17.72728 178.148141,18.08588 C178.861551,18.44558 179.703877,18.62488 180.674026,18.62488 C181.717374,18.62488 182.647101,18.40378 183.462115,17.96158 C184.276035,17.51938 184.994907,16.77248 185.617639,15.72198 L185.068106,15.30728 C184.591771,16.00798 184.056441,16.55138 183.462115,16.93858 C182.866696,17.32578 182.120511,17.51938 181.223559,17.51938 C180.636881,17.51938 180.115753,17.39068 179.657991,17.13218 C179.200229,16.87478 178.811295,16.51068 178.491189,16.03988 C178.171084,15.57018 177.928546,15.01248 177.763577,14.36678 C177.598608,13.72218 177.51667,13.02148 177.51667,12.26578 L185.837233,12.26578 L185.891859,11.15918 Z M177.51667,11.15918 C177.51667,10.44088 177.588775,9.77758 177.736264,9.16928 C177.882661,8.56098 178.083683,8.03518 178.340423,7.59298 C178.59607,7.15078 178.898696,6.80428 179.246115,6.55568 C179.593533,6.30708 179.978097,6.18278 180.399806,6.18278 C181.369956,6.18278 182.093198,6.61178 182.569533,7.46868 C183.044775,8.32558 183.282943,9.55648 183.282943,11.15918 L177.51667,11.15918 Z M191.851507,8.53348 C191.540141,7.81408 191.201463,7.22888 190.835471,6.77678 C190.468388,6.32578 190.083824,5.97488 189.68178,5.72628 C189.278643,5.47768 188.862396,5.30828 188.431947,5.21478 C188.001498,5.12348 187.585251,5.07728 187.183207,5.07728 C187.054291,5.07728 186.884952,5.08608 186.675189,5.10368 C186.464335,5.12348 186.322308,5.13228 186.24911,5.13228 L186.24911,5.68558 C186.579048,5.70318 186.870749,5.76808 187.127489,5.87918 C187.384229,5.98918 187.622396,6.15528 187.841991,6.37638 C188.061586,6.59748 188.271348,6.88348 188.473463,7.23328 C188.674485,7.58418 188.885339,8.01648 189.104934,8.53348 L193.361357,18.62488 L193.91089,18.62488 L199.540599,5.35338 L198.167313,5.35338 L194.322767,14.47788 L191.851507,8.53348 Z" id="Fill-3" fill="#000000" mask="url(#mask-2)"></path>
                </g>
                <path d="M50.6125392,36.466 C50.787341,36.8598 51.0539137,37.203 51.4122573,37.4956 C51.7695084,37.7882 52.2119753,38.0181 52.7385656,38.1886 C53.2640634,38.358 53.8846097,38.4427 54.6002044,38.4427 C55.4108476,38.4427 56.1319048,38.3206 56.7666537,38.0764 C57.4014026,37.8311 57.9607683,37.5253 58.4469357,37.159 L59.2564863,38.0357 L61.4841163,38.0357 L59.6814731,36.0579 C59.9786361,35.7323 60.2419313,35.4056 60.4713586,35.08 C60.7007859,34.7533 60.8897903,34.4618 61.0383718,34.2033 C61.2131736,33.9041 61.3617551,33.6192 61.4841163,33.3475 L61.0787947,33.0417 C60.9302132,33.3002 60.7685216,33.5719 60.5926273,33.8568 C60.4309357,34.1021 60.2386537,34.3738 60.0157815,34.6719 C59.7929093,34.9711 59.5405392,35.2769 59.2564863,35.5893 L55.1879753,31.1046 C55.5790943,30.8329 55.9538256,30.5546 56.3110767,30.2697 C56.6683278,29.9837 56.9829709,29.6823 57.2528211,29.3622 C57.5226714,29.0432 57.737896,28.6934 57.9006802,28.3128 C58.0623718,27.9322 58.1432176,27.5043 58.1432176,27.028 C58.1432176,26.2129 57.8526097,25.5342 57.2724863,24.9908 C56.692363,24.4474 55.8686097,24.1757 54.8034115,24.1757 C53.6824952,24.1757 52.7953762,24.4606 52.1409621,25.0304 C51.486548,25.6024 51.1587947,26.3768 51.1587947,27.3547 C51.1587947,27.9399 51.2636758,28.4789 51.4734379,28.975 C51.6821075,29.4711 51.9213674,29.8957 52.1912176,30.2488 C52.5014907,30.6701 52.8521868,31.0507 53.2443982,31.3906 C52.8794996,31.6623 52.5222485,31.9307 52.1715524,32.1958 C51.8197639,32.4609 51.5094907,32.7458 51.2396405,33.0516 C50.9697903,33.3574 50.7545656,33.6841 50.5917815,34.0306 C50.4300899,34.3771 50.3492441,34.761 50.3492441,35.1823 C50.3492441,35.6432 50.4366449,36.0722 50.6125392,36.466 L50.6125392,36.466 Z M52.2720634,34.9777 C52.2720634,34.3661 52.4206449,33.8326 52.7178079,33.3783 C53.0149709,32.9229 53.3929797,32.4983 53.8518344,32.1045 L58.0219489,36.6904 C57.6166273,37.0028 57.1643278,37.2536 56.6650502,37.4439 C56.1657727,37.6342 55.6053145,37.7299 54.9847683,37.7299 C53.1766626,37.7299 52.2720634,36.8125 52.2720634,34.9777 L52.2720634,34.9777 Z M53.2345656,26.1931 C53.3350767,25.8807 53.470548,25.6255 53.6387947,25.4286 C53.8081339,25.2317 53.9927683,25.092 54.1959753,25.0106 C54.3980899,24.9292 54.6002044,24.8885 54.8034115,24.8885 C54.9782132,24.8885 55.1606626,24.9292 55.349667,25.0106 C55.5386714,25.092 55.7145656,25.2251 55.8762573,25.4077 C56.0379489,25.5914 56.1690502,25.8323 56.2706537,26.1315 C56.3722573,26.4307 56.4225128,26.7981 56.4225128,27.2326 C56.4225128,27.9124 56.2400634,28.4998 55.8762573,28.9959 C55.5113586,29.492 55.0732617,29.9573 54.5597815,30.3918 C54.5193586,30.3654 54.4210326,30.2664 54.2669885,30.0959 C54.1107595,29.9265 53.9457903,29.7054 53.7709885,29.4337 C53.5950943,29.162 53.4366802,28.8496 53.2946537,28.4965 C53.1526273,28.1434 53.0827066,27.7628 53.0827066,27.3547 C53.0827066,26.8927 53.1329621,26.5055 53.2345656,26.1931 L53.2345656,26.1931 Z M69.8035877,30.2895 C69.8975436,30.141 70.0133498,29.9914 70.1477286,29.8418 C70.2832,29.6922 70.435059,29.5602 70.6033057,29.4436 C70.7715524,29.3292 70.9638344,29.2368 71.1801515,29.1686 C71.3964687,29.1015 71.6455612,29.0663 71.9296141,29.0663 C72.3338432,29.0663 72.6812617,29.1763 72.9718696,29.393 C73.2624775,29.6108 73.505015,29.9067 73.7005744,30.2796 C73.8961339,30.6536 74.0381604,31.0947 74.1255612,31.6051 C74.2140546,32.1144 74.2577551,32.6611 74.2577551,33.2452 C74.2577551,33.8304 74.2096846,34.3771 74.1157286,34.8864 C74.0206802,35.3957 73.8731912,35.8379 73.6699841,36.2108 C73.4678696,36.5848 73.207852,36.8807 72.8910238,37.0974 C72.5741956,37.3152 72.1852617,37.4241 71.7274996,37.4241 C71.4161339,37.4241 71.0960282,37.3592 70.7649974,37.2305 C70.435059,37.1018 70.1138608,36.9621 69.8035877,36.8125 L69.8035877,30.2895 Z M67.9823718,41.9077 L69.8035877,41.9077 L69.8035877,37.6276 C70.1138608,37.7772 70.4722044,37.9169 70.8764335,38.0456 C71.2817551,38.1743 71.7679225,38.2392 72.3338432,38.2392 C72.9959048,38.2392 73.5661956,38.1072 74.0447154,37.841 C74.5243278,37.577 74.9220018,37.2206 75.23883,36.7718 C75.5567507,36.323 75.792733,35.7972 75.9478696,35.1922 C76.1030062,34.5872 76.1805744,33.9382 76.1805744,33.2452 C76.1805744,32.5522 76.1030062,31.9043 75.9478696,31.2993 C75.792733,30.6943 75.5633057,30.1674 75.2595877,29.7197 C74.9558696,29.2709 74.5778608,28.9145 74.1255612,28.6494 C73.6732617,28.3843 73.1444863,28.2512 72.5370502,28.2512 C71.7810326,28.2512 71.1867066,28.3744 70.7551648,28.6186 C70.3236229,28.8628 70.0057022,29.1147 69.8035877,29.3732 L69.7030767,29.3732 C69.5949181,29.0608 69.4091912,28.8298 69.145896,28.6791 C68.8826009,28.5306 68.4947595,28.4558 67.9823718,28.4558 L66.1600634,28.4558 L66.1600634,28.8628 L66.5642925,28.8628 C67.1717286,28.8628 67.55957,29.0498 67.7289093,29.4238 C67.8971559,29.7978 67.9823718,30.2895 67.9823718,30.9011 L67.9823718,41.9077 Z M83.2655084,36.0997 C83.0633938,36.4121 82.8175789,36.6937 82.5269709,36.9456 C82.236363,37.1964 81.8419665,37.3218 81.342689,37.3218 C81.0859489,37.3218 80.8434115,37.2844 80.6139841,37.2096 C80.3845568,37.1348 80.1824423,37.016 80.006548,36.8532 C79.8306537,36.6904 79.6897198,36.4869 79.5815612,36.2416 C79.4734026,35.9974 79.4198696,35.7114 79.4198696,35.3858 C79.4198696,34.7742 79.7061075,34.2814 80.2796758,33.9074 C80.8532441,33.5345 81.646407,33.3475 82.6591648,33.3475 L83.2655084,33.3475 L83.2655084,36.0997 Z M85.0878167,38.0357 L85.0878167,32.5324 C85.0878167,31.6216 84.9894907,30.8846 84.7939313,30.3203 C84.5983718,29.7571 84.3350767,29.3215 84.0051383,29.0157 C83.6741075,28.7099 83.2960987,28.5064 82.8711119,28.4041 C82.4461251,28.3029 82.0036581,28.2512 81.5448035,28.2512 C81.2345304,28.2512 80.9275348,28.2655 80.6238167,28.2919 C80.3200987,28.3194 80.0338608,28.3601 79.7640106,28.4151 C79.4941604,28.469 79.2472529,28.5438 79.0243806,28.6384 C78.8026009,28.7341 78.6299841,28.843 78.5087154,28.9651 C78.2519753,29.2236 78.1033938,29.5052 78.0629709,29.811 C78.022548,30.1168 78.0028828,30.4457 78.0028828,30.7999 L78.9129445,30.7999 C79.061526,30.1344 79.3280987,29.679 79.7126626,29.4337 C80.0972264,29.1895 80.5735612,29.0663 81.1405744,29.0663 C81.4366449,29.0663 81.7174203,29.1147 81.9807154,29.2093 C82.2440106,29.305 82.4690678,29.4777 82.6591648,29.7296 C82.8470767,29.9804 82.9956581,30.3346 83.1038167,30.7889 C83.2119753,31.2443 83.2655084,31.8251 83.2655084,32.5324 L82.6591648,32.5324 C81.9697903,32.5324 81.3153762,32.5764 80.69483,32.6644 C80.0742837,32.7535 79.5269357,32.9064 79.0549709,33.1231 C78.5830062,33.3409 78.2049974,33.6324 77.922037,33.9998 C77.6379841,34.3661 77.4959577,34.8281 77.4959577,35.3858 C77.4959577,35.9424 77.5975612,36.4044 77.7996758,36.7718 C78.0028828,37.1381 78.2519753,37.4307 78.5491383,37.6485 C78.8463013,37.8652 79.1631295,38.0181 79.5007154,38.1072 C79.8383013,38.1952 80.1485744,38.2392 80.4315348,38.2392 C81.2006626,38.2392 81.8146537,38.1171 82.2735084,37.8718 C82.732363,37.6276 83.0633938,37.3768 83.2655084,37.1183 L83.3671119,37.1183 L84.0761515,38.0357 L85.0878167,38.0357 Z M87.6584952,38.0357 L89.4808035,38.0357 L89.4808035,30.4941 C89.6829181,30.1817 89.9527683,29.9331 90.2903542,29.7505 C90.6279401,29.5668 90.9993938,29.4744 91.4036229,29.4744 C91.7543189,29.4744 92.0755172,29.525 92.3650326,29.6273 C92.6556405,29.7296 92.8741427,29.8825 93.0238167,30.086 L93.8333674,29.4744 C93.7252088,29.2709 93.6170502,29.0938 93.5088916,28.9453 C93.400733,28.7957 93.2729093,28.6659 93.1243278,28.5581 C92.9757463,28.4481 92.7867419,28.3711 92.5573145,28.3227 C92.3278872,28.2754 92.1126626,28.2512 91.9094555,28.2512 C91.3031119,28.2512 90.7961868,28.3744 90.3919577,28.6186 C89.9866361,28.8628 89.6829181,29.1147 89.4808035,29.3732 L89.3792,29.3732 C89.2710414,29.0608 89.0853145,28.8298 88.8231119,28.6791 C88.5598167,28.5306 88.1708828,28.4558 87.6584952,28.4558 L86.0393938,28.4558 L86.0393938,28.8628 L86.2415084,28.8628 C86.8489445,28.8628 87.2367859,29.0498 87.4061251,29.4238 C87.5743718,29.7978 87.6584952,30.2895 87.6584952,30.9011 L87.6584952,38.0357 Z M95.5125568,35.5893 C95.5125568,36.5133 95.7387066,37.1865 96.1910062,37.6078 C96.6433057,38.028 97.2267066,38.2392 97.9423013,38.2392 C98.2929974,38.2392 98.6032705,38.2117 98.8731207,38.1578 C99.1429709,38.1028 99.3800458,38.0357 99.5821604,37.9543 C99.7842749,37.8718 99.9568916,37.7838 100.097826,37.6892 C100.239852,37.5935 100.364398,37.5055 100.472557,37.4241 L100.270442,37.016 C100.068328,37.1249 99.8520106,37.2206 99.6225833,37.302 C99.3931559,37.3834 99.102548,37.4241 98.751852,37.4241 C97.80683,37.4241 97.3348652,36.8125 97.3348652,35.5893 L97.3348652,29.2709 L99.7646097,29.2709 L99.7646097,28.4558 L97.3348652,28.4558 L97.3348652,25.3978 L96.5253145,25.3978 L95.5125568,26.621 L95.5125568,28.4558 L94.09557,28.4558 L94.09557,29.2709 L95.5125568,29.2709 L95.5125568,35.5893 Z M101.869878,38.0357 L103.691094,38.0357 L103.691094,30.2488 C103.947834,29.9639 104.248275,29.712 104.592416,29.4953 C104.936557,29.2775 105.311288,29.1686 105.715517,29.1686 C105.99957,29.1686 106.272698,29.217 106.535993,29.3116 C106.799288,29.4073 107.03527,29.5635 107.24394,29.7802 C107.453702,29.998 107.621949,30.2829 107.750865,30.636 C107.878689,30.9902 107.943147,31.4181 107.943147,31.9208 L107.943147,38.0357 L109.764363,38.0357 L109.764363,31.9208 C109.764363,31.1871 109.66713,30.5821 109.47157,30.1069 C109.276011,29.6306 109.015993,29.2533 108.691517,28.975 C108.368134,28.6967 107.999958,28.5064 107.588081,28.4041 C107.176204,28.3029 106.755588,28.2512 106.322953,28.2512 C105.715517,28.2512 105.190019,28.3568 104.744275,28.568 C104.29853,28.7781 103.947834,29.0135 103.691094,29.2709 L103.590583,29.2709 C103.482425,29.0135 103.296698,28.8122 103.033403,28.6692 C102.770107,28.5273 102.382266,28.4558 101.869878,28.4558 L100.04757,28.4558 L100.04757,28.8628 L100.452892,28.8628 C101.060328,28.8628 101.448169,29.0498 101.616416,29.4238 C101.784663,29.7978 101.869878,30.2895 101.869878,30.9011 L101.869878,38.0357 Z M119.724786,32.7359 C119.724786,31.296 119.393755,30.1883 118.732786,29.4128 C118.071817,28.6384 117.052504,28.2512 115.67594,28.2512 C115.041191,28.2512 114.474178,28.3843 113.9749,28.6494 C113.475623,28.9145 113.050636,29.2709 112.69994,29.7197 C112.349244,30.1674 112.082671,30.6943 111.900222,31.2993 C111.717773,31.9043 111.627094,32.5522 111.627094,33.2452 C111.627094,33.9382 111.714495,34.5872 111.890389,35.1922 C112.065191,35.7972 112.331764,36.323 112.690107,36.7718 C113.047359,37.2206 113.489826,37.577 114.016416,37.841 C114.541914,38.1072 115.16246,38.2392 115.878055,38.2392 C116.647182,38.2392 117.332187,38.0764 117.933068,37.7497 C118.533949,37.4241 119.062724,36.8741 119.522671,36.0997 L119.11735,35.7939 C118.766654,36.3098 118.371165,36.7102 117.933068,36.9962 C117.493878,37.2811 116.944345,37.4241 116.283376,37.4241 C115.850742,37.4241 115.466178,37.3295 115.129685,37.1381 C114.792099,36.9478 114.504768,36.6794 114.268786,36.3329 C114.032804,35.9864 113.853632,35.5761 113.732363,35.0998 C113.611094,34.6246 113.549914,34.1087 113.549914,33.551 L119.684363,33.551 L119.724786,32.7359 Z M113.549914,32.7359 C113.549914,32.2057 113.604539,31.7173 113.712698,31.2685 C113.819764,30.8197 113.968345,30.4325 114.15735,30.1069 C114.346354,29.7802 114.569226,29.525 114.825967,29.3424 C115.081614,29.1587 115.365667,29.0663 115.67594,29.0663 C116.391535,29.0663 116.923588,29.3831 117.275376,30.0145 C117.626072,30.6459 117.801967,31.5534 117.801967,32.7359 L113.549914,32.7359 Z M121.809297,38.0357 L123.631605,38.0357 L123.631605,30.4941 C123.83372,30.1817 124.10357,29.9331 124.441156,29.7505 C124.778742,29.5668 125.150196,29.4744 125.554425,29.4744 C125.905121,29.4744 126.226319,29.525 126.516927,29.6273 C126.806442,29.7296 127.026037,29.8825 127.174619,30.086 L127.984169,29.4744 C127.876011,29.2709 127.767852,29.0938 127.659693,28.9453 C127.551535,28.7957 127.423711,28.6659 127.27513,28.5581 C127.126548,28.4481 126.937544,28.3711 126.709209,28.3227 C126.478689,28.2754 126.263464,28.2512 126.06135,28.2512 C125.453914,28.2512 124.946989,28.3744 124.542759,28.6186 C124.137438,28.8628 123.83372,29.1147 123.631605,29.3732 L123.530002,29.3732 C123.421843,29.0608 123.237209,28.8298 122.973914,28.6791 C122.710619,28.5306 122.322777,28.4558 121.809297,28.4558 L120.190196,28.4558 L120.190196,28.8628 L120.39231,28.8628 C120.999746,28.8628 121.387588,29.0498 121.556927,29.4238 C121.725174,29.7978 121.809297,30.2895 121.809297,30.9011 L121.809297,38.0357 Z M135.332398,33.8975 C134.886654,33.4762 134.23224,33.089 133.369156,32.7359 L132.154284,32.2266 C131.640804,32.0088 131.24313,31.7547 130.960169,31.4621 C130.676116,31.1706 130.53409,30.8472 130.53409,30.4941 C130.53409,30.086 130.706707,29.7472 131.050848,29.4744 C131.394989,29.2027 131.897544,29.0663 132.558513,29.0663 C133.369156,29.0663 133.999535,29.2577 134.451834,29.6372 C134.904134,30.0178 135.183817,30.5414 135.291975,31.2069 L135.697297,31.2069 C135.697297,30.691 135.676539,30.2697 135.636116,29.943 C135.595693,29.6174 135.447112,29.3248 135.190372,29.0663 C134.933632,28.8089 134.555623,28.6076 134.057438,28.4657 C133.557068,28.3227 132.923411,28.2512 132.154284,28.2512 C131.668116,28.2512 131.222372,28.3095 130.818143,28.425 C130.412821,28.5405 130.062125,28.7099 129.764962,28.9343 C129.467799,29.1587 129.235094,29.4337 129.066848,29.7604 C128.897508,30.086 128.813385,30.4666 128.813385,30.9011 C128.813385,31.5677 129.026425,32.1144 129.451411,32.5423 C129.876398,32.9702 130.474002,33.3409 131.24313,33.6533 L132.458002,34.1626 C133.065438,34.4211 133.521015,34.6895 133.824733,34.9678 C134.127359,35.2461 134.279218,35.5893 134.279218,35.9974 C134.279218,36.4044 134.101138,36.7443 133.742795,37.016 C133.385544,37.2888 132.821808,37.4241 132.05268,37.4241 C131.188504,37.4241 130.527535,37.2338 130.06868,36.8532 C129.609826,36.4726 129.326865,35.9501 129.218707,35.2835 L128.813385,35.2835 C128.813385,35.8005 128.834143,36.2207 128.874566,36.5474 C128.914989,36.8741 129.06357,37.1656 129.32031,37.4241 C129.575958,37.6815 129.960522,37.8828 130.474002,38.0247 C130.986389,38.1677 131.648451,38.2392 132.458002,38.2392 C132.957279,38.2392 133.425967,38.1809 133.865156,38.0665 C134.303253,37.951 134.677984,37.7805 134.988257,37.5561 C135.29853,37.3328 135.545438,37.0567 135.726795,36.7311 C135.909244,36.4044 135.999922,36.0249 135.999922,35.5893 C135.999922,34.8831 135.778143,34.3188 135.332398,33.8975 L135.332398,33.8975 Z" id="Fill-6" fill="#000000"></path>
            </g>
        </g>
    </g>
</svg>