<?xml version="1.0" encoding="UTF-8" standalone="no"?>
<svg width="15px" height="15px" viewBox="0 0 15 15" version="1.1" xmlns="http://www.w3.org/2000/svg" xmlns:xlink="http://www.w3.org/1999/xlink">
    <!-- Generator: Sketch 39.1 (31720) - http://www.bohemiancoding.com/sketch -->
    <title>Shape</title>
    <desc>Created with Sketch.</desc>
    <defs></defs>
    <g id="Page-1" stroke="none" stroke-width="1" fill="none" fill-rule="evenodd" opacity="0.5">
        <g id="main-page" transform="translate(-946.000000, -7.000000)" fill="#E2E2E2">
            <path d="M953.5,7 C949.333333,7 946,10.3333333 946,14.5 C946,18.5833333 949.333333,22 953.5,22 C957.583333,22 961,18.6666667 961,14.5 C960.916667,10.3333333 957.583333,7 953.5,7 L953.5,7 Z M957.583333,13.75 L956,15.25 C955.916667,15.3333333 955.833333,15.5 955.833333,15.6666667 L956.166667,17.8333333 C956.25,18.25 955.833333,18.5 955.5,18.3333333 L953.583333,17.3333333 C953.416667,17.25 953.25,17.25 953.166667,17.3333333 L951.25,18.3333333 C951,18.5 950.583333,18.25 950.666667,17.8333333 L951,15.6666667 C951,15.5 951,15.3333333 950.833333,15.25 L949.333333,13.75 C949.083333,13.5 949.166667,13 949.583333,13 L951.75,12.6666667 C951.916667,12.6666667 952,12.5833333 952.083333,12.4166667 L953.083333,10.5 C953.25,10.1666667 953.75,10.1666667 953.916667,10.5 L954.916667,12.4166667 C955,12.5833333 955.083333,12.6666667 955.25,12.6666667 L957.416667,13 C957.75,13 957.833333,13.5 957.583333,13.75 L957.583333,13.75 Z" id="Shape"></path>
        </g>
    </g>
</svg>