<?xml version="1.0" encoding="UTF-8" standalone="no"?>
<svg width="14px" height="10px" viewBox="0 0 14 10" version="1.1" xmlns="http://www.w3.org/2000/svg" xmlns:xlink="http://www.w3.org/1999/xlink">
    <!-- Generator: Sketch 39.1 (31720) - http://www.bohemiancoding.com/sketch -->
    <title>,,</title>
    <desc>Created with Sketch.</desc>
    <defs></defs>
    <g id="Page-1" stroke="none" stroke-width="1" fill="none" fill-rule="evenodd">
        <g id="main-page" transform="translate(-410.000000, -1098.000000)" fill="#000000">
            <path d="M412.66,1107.772 C414.844,1106.232 416.16,1104.076 416.16,1101.612 C416.16,1099.316 414.62,1098 412.912,1098 C411.344,1098 410,1099.316 410,1100.94 C410,1102.508 411.092,1103.656 412.436,1103.656 C412.744,1103.656 413.024,1103.6 413.164,1103.544 C412.8,1104.608 411.512,1105.728 410.616,1106.12 L412.66,1107.772 Z M419.897369,1107.772 C422.081369,1106.232 423.397369,1104.076 423.397369,1101.612 C423.397369,1099.316 421.857369,1098 420.149369,1098 C418.581369,1098 417.237369,1099.316 417.237369,1100.94 C417.237369,1102.508 418.329369,1103.656 419.673369,1103.656 C419.981369,1103.656 420.261369,1103.6 420.401369,1103.544 C420.037369,1104.608 418.749369,1105.728 417.853369,1106.12 L419.897369,1107.772 Z" id=",," transform="translate(416.698685, 1102.886000) scale(-1, -1) translate(-416.698685, -1102.886000) "></path>
        </g>
    </g>
</svg>