<?xml version="1.0" encoding="UTF-8" standalone="no"?>
<svg width="107px" height="78px" viewBox="0 0 107 78" version="1.1" xmlns="http://www.w3.org/2000/svg" xmlns:xlink="http://www.w3.org/1999/xlink">
    <!-- Generator: Sketch 39.1 (31720) - http://www.bohemiancoding.com/sketch -->
    <title>,,</title>
    <desc>Created with Sketch.</desc>
    <defs></defs>
    <g id="Page-1" stroke="none" stroke-width="1" fill="none" fill-rule="evenodd">
        <g id="main-page" transform="translate(-107.000000, -896.000000)" fill="#000000">
            <path d="M128.638,973.634 C145.954,961.424 156.388,944.33 156.388,924.794 C156.388,906.59 144.178,896.156 130.636,896.156 C118.204,896.156 107.548,906.59 107.548,919.466 C107.548,931.898 116.206,941 126.862,941 C129.304,941 131.524,940.556 132.634,940.112 C129.748,948.548 119.536,957.428 112.432,960.536 L128.638,973.634 Z M186.02,973.634 C203.336,961.424 213.77,944.33 213.77,924.794 C213.77,906.59 201.56,896.156 188.018,896.156 C175.586,896.156 164.93,906.59 164.93,919.466 C164.93,931.898 173.588,941 184.244,941 C186.686,941 188.906,940.556 190.016,940.112 C187.13,948.548 176.918,957.428 169.814,960.536 L186.02,973.634 Z" id=",,"></path>
        </g>
    </g>
</svg>