<?xml version="1.0" encoding="UTF-8" standalone="no"?>
<svg width="15px" height="15px" viewBox="0 0 15 15" version="1.1" xmlns="http://www.w3.org/2000/svg" xmlns:xlink="http://www.w3.org/1999/xlink">
    <!-- Generator: Sketch 39.1 (31720) - http://www.bohemiancoding.com/sketch -->
    <title>Shape</title>
    <desc>Created with Sketch.</desc>
    <defs></defs>
    <g id="Page-1" stroke="none" stroke-width="1" fill="none" fill-rule="evenodd">
        <g id="main-page" transform="translate(-760.000000, -7.000000)" fill="#E2E2E2">
            <path d="M767.5,7 C763.333333,7 760,10.3333333 760,14.5 C760,18.6666667 763.333333,22 767.5,22 C771.666667,22 775,18.6666667 775,14.5 C775,10.3333333 771.583333,7 767.5,7 L767.5,7 Z M771.75,17.75 L770.416667,17.75 C770.416667,17.75 770.166667,17.8333333 769.75,17.5833333 C769.25,17.25 768.833333,16.3333333 768.416667,16.5 C768.083333,16.5833333 768.083333,17.4166667 768.083333,17.4166667 C768.083333,17.4166667 768.083333,17.5833333 768,17.6666667 C767.916667,17.75 767.75,17.75 767.75,17.75 L767.166667,17.75 C767.166667,17.75 765.833333,17.8333333 764.75,16.6666667 C763.5,15.3333333 762.416667,12.75 762.416667,12.75 C762.416667,12.75 762.333333,12.5833333 762.416667,12.5 C762.5,12.4166667 762.75,12.4166667 762.75,12.4166667 L764.166667,12.4166667 C764.166667,12.4166667 764.333333,12.4166667 764.416667,12.5 C764.5,12.5833333 764.5,12.6666667 764.5,12.6666667 C764.5,12.6666667 764.666667,13.25 765,13.75 C765.583333,14.75 765.833333,15 766.083333,14.9166667 C766.333333,14.75 766.25,13.5 766.25,13.5 C766.25,13.5 766.25,13 766.083333,12.8333333 C766,12.6666667 765.75,12.5833333 765.666667,12.5833333 C765.583333,12.5833333 765.75,12.4166667 765.916667,12.3333333 C766.166667,12.25 766.583333,12.1666667 767.166667,12.1666667 C767.583333,12.1666667 767.666667,12.1666667 767.833333,12.25 C768.333333,12.3333333 768.166667,12.8333333 768.166667,13.9166667 C768.166667,14.25 768.083333,14.75 768.333333,14.9166667 C768.416667,15 768.666667,14.9166667 769.333333,13.8333333 C769.666667,13.3333333 769.916667,12.6666667 769.916667,12.6666667 C769.916667,12.6666667 770,12.5833333 770.083333,12.5 C770.166667,12.4166667 770.25,12.5 770.25,12.5 L771.75,12.5 C771.75,12.5 772.166667,12.4166667 772.25,12.6666667 C772.333333,12.9166667 772.083333,13.3333333 771.5,14.1666667 C770.5,15.5 770.416667,15.3333333 771.25,16.1666667 C772,16.9166667 772.166667,17.25 772.25,17.3333333 C772.416667,17.75 771.75,17.75 771.75,17.75 L771.75,17.75 Z" id="Shape"></path>
        </g>
    </g>
</svg>