<?xml version="1.0" encoding="UTF-8" standalone="no"?>
<svg width="15px" height="16px" viewBox="0 0 15 16" version="1.1" xmlns="http://www.w3.org/2000/svg" xmlns:xlink="http://www.w3.org/1999/xlink">
    <!-- Generator: Sketch 39.1 (31720) - http://www.bohemiancoding.com/sketch -->
    <title>Shape</title>
    <desc>Created with Sketch.</desc>
    <defs></defs>
    <g id="Page-1" stroke="none" stroke-width="1" fill="none" fill-rule="evenodd">
        <g id="main-page" transform="translate(-110.000000, -4403.000000)" fill="#4E5050">
            <path d="M117.5,4403.85 C113.333333,4403.85 110,4407.18333 110,4411.35 C110,4415.43333 113.333333,4418.85 117.5,4418.85 C121.583333,4418.85 125,4415.51667 125,4411.35 C124.916667,4407.18333 121.583333,4403.85 117.5,4403.85 L117.5,4403.85 Z M121.583333,4410.6 L120,4412.1 C119.916667,4412.18333 119.833333,4412.35 119.833333,4412.51667 L120.166667,4414.68333 C120.25,4415.1 119.833333,4415.35 119.5,4415.18333 L117.583333,4414.18333 C117.416667,4414.1 117.25,4414.1 117.166667,4414.18333 L115.25,4415.18333 C115,4415.35 114.583333,4415.1 114.666667,4414.68333 L115,4412.51667 C115,4412.35 115,4412.18333 114.833333,4412.1 L113.333333,4410.6 C113.083333,4410.35 113.166667,4409.85 113.583333,4409.85 L115.75,4409.51667 C115.916667,4409.51667 116,4409.43333 116.083333,4409.26667 L117.083333,4407.35 C117.25,4407.01667 117.75,4407.01667 117.916667,4407.35 L118.916667,4409.26667 C119,4409.43333 119.083333,4409.51667 119.25,4409.51667 L121.416667,4409.85 C121.75,4409.85 121.833333,4410.35 121.583333,4410.6 L121.583333,4410.6 Z" id="Shape"></path>
        </g>
    </g>
</svg>