<?xml version="1.0" encoding="UTF-8" standalone="no"?>
<svg width="15px" height="15px" viewBox="0 0 15 15" version="1.1" xmlns="http://www.w3.org/2000/svg" xmlns:xlink="http://www.w3.org/1999/xlink">
    <!-- Generator: Sketch 39.1 (31720) - http://www.bohemiancoding.com/sketch -->
    <title>Shape</title>
    <desc>Created with Sketch.</desc>
    <defs></defs>
    <g id="Page-1" stroke="none" stroke-width="1" fill="none" fill-rule="evenodd" opacity="0.5">
        <g id="main-page" transform="translate(-839.000000, -7.000000)" fill="#E2E2E2">
            <path d="M846.5,7 C842.333333,7 839,10.3333333 839,14.5 C839,18.5833333 842.333333,22 846.5,22 C850.583333,22 854,18.6666667 854,14.5 C853.916667,10.3333333 850.583333,7 846.5,7 L846.5,7 Z M850.5,14.6666667 L844.833333,18.5 C844.75,18.5 844.75,18.5833333 844.666667,18.5833333 L844.583333,18.5833333 C844.5,18.5 844.416667,18.4166667 844.416667,18.3333333 L844.416667,10.5833333 C844.416667,10.5 844.5,10.4166667 844.583333,10.3333333 C844.583333,10.3333333 844.75,10.3333333 844.833333,10.4166667 L850.5,14.25 C850.583333,14.3333333 850.583333,14.4166667 850.583333,14.5 C850.583333,14.5833333 850.5,14.5833333 850.5,14.6666667 L850.5,14.6666667 Z" id="Shape"></path>
        </g>
    </g>
</svg>