<?xml version="1.0" encoding="UTF-8" standalone="no"?>
<svg width="15px" height="12px" viewBox="0 0 15 12" version="1.1" xmlns="http://www.w3.org/2000/svg" xmlns:xlink="http://www.w3.org/1999/xlink">
    <!-- Generator: Sketch 40.3 (33839) - http://www.bohemiancoding.com/sketch -->
    <title>Shape</title>
    <desc>Created with Sketch.</desc>
    <defs></defs>
    <g id="Page-1" stroke="none" stroke-width="1" fill="none" fill-rule="evenodd">
        <g id="investment-practice" transform="translate(-848.000000, -1012.000000)" fill="#414141">
            <path d="M861.219668,1012 L849.780371,1012 C848.798682,1012 848,1012.767 848,1013.70975 L848,1021.68311 C848,1022.62586 848.798682,1023.39286 849.780371,1023.39286 L861.219668,1023.39286 C862.201357,1023.39286 863,1022.62586 863,1021.68311 L863,1013.70975 C863,1012.767 862.201357,1012 861.219668,1012 L861.219668,1012 Z M861.219668,1021.88343 L849.780371,1021.88343 C849.63607,1021.88343 849.509511,1021.78984 849.509511,1021.68311 L849.509511,1014.7641 L854.683202,1019.132 C854.789269,1019.22158 854.924149,1019.27089 855.063033,1019.27089 L855.93681,1019.27093 C856.075616,1019.27093 856.210574,1019.22158 856.31668,1019.132 L861.490606,1014.76394 L861.490606,1021.68319 C861.490528,1021.78984 861.36393,1021.88343 861.219668,1021.88343 L861.219668,1021.88343 Z M855.50002,1017.77213 L850.467961,1013.50943 L860.532078,1013.50943 L855.50002,1017.77213 L855.50002,1017.77213 Z" id="Shape"></path>
        </g>
    </g>
</svg>